<svg width="1280" height="720" version="1.1" xmlns="http://www.w3.org/2000/svg" desc="Created with imagetracer.js version 1.2.6" ><path fill="rgb(250,237,218)" stroke="rgb(250,237,218)" stroke-width="1" opacity="1" d="M 0 0 L 63.5 0 L 64 0.5 L 64 20 L 80 20 L 80 16 L 84 16 L 84 12 L 88 12 Q 86 6 92 8 L 92 0 L 120 0 L 120 4 Q 114 2 116 8 L 108 8 L 108 12 L 112 12 L 112 20 L 124 20 L 124 28 L 132 28 L 132 24 Q 138 26 136 20 L 144 20 L 144 16 L 152 16 L 152.5 12 L 164 12 L 164 16 L 168 16 L 168.5 20 L 188 20 L 188 16 L 192 15.5 L 192 0 L 236 0 L 236 4 L 244 4 L 244 8 L 256 8 L 256 16 L 260 16 L 260.5 20 L 304 20 L 304 16 L 308 16 L 308 12 L 312 12 L 312 8 L 316 8 L 316 4 Q 322 6 320 0 L 336 0 L 336 4 L 328 4 L 328 20 L 332 20 L 332.5 24 L 368 24 L 368 20 L 379.5 20 L 380.5 16 L 392 16 L 392 8 Q 386 10 388 4 L 380 4 L 380 0 L 400 0 L 400 8 Q 406 6 404 12 L 412 12 L 412 16 L 416 16 L 416.5 20 L 452 20 L 452.5 16 L 484 16 L 484 20 L 488 20 L 488 24 L 492 24 L 492 28 L 496 28 Q 494 34 500 32 Q 498 26 504 28 L 504 20 L 508 20 L 508 8 L 504 8 L 504 4 Q 498 6 500 0 L 512 0 L 512 7.5 L 516 8 L 516 16 L 520 16 L 520 20 Q 526 18 524 24 L 548 24 L 548 20 L 560 20 Q 558 26 564 24 L 564 20 L 571.5 20 L 572 16 L 580 16 L 580 0 L 592 0 L 592 8 L 596 8 L 596 12 Q 602 10 600 16 L 623.5 16 L 624.5 20 L 648 20 L 648 16 L 660 16 Q 658 22 664 20 L 664 12 L 660 11.5 L 660 0 L 676 0 L 676 8 L 684 8 L 684 12 Q 690 10 688 16 L 696 16 L 696.5 20 L 732 20 L 732 16 L 736 16 Q 734 10 740 12 L 740 4 L 732 4 L 732 0 L 756 0 L 756 12 L 768 12 L 768 0 L 792 0 L 792 4 L 780 4 L 780 8 L 776 8 L 776 12 Q 770 10 772 16 L 776 16 L 776 28 L 787.5 28 L 788.5 32 L 812 32 L 812 28 L 824 28 L 824 8 L 820 8 L 819.5 4 L 808 4 L 808 0 L 847.5 0 L 848 4 L 840 4 Q 842 10 836 8 L 836 16 Q 842 14 840 20 L 848 20 L 848.5 24 L 867.5 24 L 868 28 L 872 28 L 872 32 L 884 32 L 884 28 L 892 28 Q 890 22 896 24 L 896 12.5 L 900 11.5 L 900 0 L 936 0 L 936 4 L 928 4 L 928 8 L 920 8 L 920 12 Q 914 10 916 16 Q 922 14 920 20 L 928 20 L 928.5 24 L 944 24 L 944.5 20 L 968 20 L 968 8 L 964 8 L 963.5 4 L 952 4 L 952 0 L 979.5 0 L 980 4 L 984 4 L 984 12 Q 990 10 988 16 L 1007.5 16 L 1008.5 20 L 1020 20 L 1020 16 L 1028 16 Q 1026 10 1032 12 L 1032 0 L 1044 0 L 1044 15.5 L 1048 16 L 1048 20 L 1071.5 20 L 1072 24 L 1076 24 Q 1074 18 1080 20 L 1080 12 L 1100 12 Q 1098 18 1104 16 L 1104 12 L 1112 12 L 1112 8 Q 1118 10 1116 4 L 1104 4 L 1104 0 L 1124 0 L 1124 8 L 1116 8 L 1116 20 L 1120 20 L 1120 24 Q 1126 22 1124 28 L 1120 28 L 1119.5 24 L 1092 24 L 1092 32 L 1084 32 L 1084 40 L 1088 40 L 1088.5 44 L 1100 44 L 1100.5 48 L 1120 48 Q 1118 54 1124 52 L 1124 60 L 1132 60 L 1132 64 L 1148 64 L 1148 52.5 L 1144 52 L 1144 44 L 1140 44 L 1140 40 L 1136 40 L 1136 36 L 1132 36 L 1132 32 Q 1126 34 1128 28 L 1136 28 Q 1134 22 1140 24 L 1140 16 L 1148 16 L 1148 4 L 1136 4 L 1136 0 L 1164 0 L 1164 20 L 1188 20 L 1188 16 L 1196 16 L 1196 12 L 1208 12 L 1208 0.5 L 1208.5 0 L 1280 0 L 1280 72 L 1276 72 L 1275.5 76 L 1264 76 L 1264 84 L 1256 84 L 1256 88 L 1248 88 L 1248 92 L 1228 92 L 1228 88 L 1216 88 L 1216 80 L 1200 80 L 1200 72 L 1192 72 L 1191.5 68 L 1180 68 L 1180 75.5 L 1179.5 76 L 1148 76 Q 1150 70 1144 72 L 1144 80 L 1132.5 80 L 1131.5 84 L 1104 84 L 1104 80 L 1092.5 80 L 1092 76 L 1084 76 L 1083.5 80 L 1064.5 80 L 1063.5 84 L 1048.5 84 L 1047.5 88 L 1036 88 L 1036 84 L 1024.5 84 L 1024 80 L 1012.5 80 L 1012 76 L 1004 76 L 1004 80 Q 998 78 1000 84 L 992 84 L 992 80 L 980.5 80 L 980 76 L 972 76 L 972 72 L 968 72 L 968 68 Q 962 70 964 64 L 956 64 L 955.5 68 L 936.5 68 L 935.5 72 L 916 72 L 916 68 L 904 68 L 904 75.5 L 900 76 L 900 84 L 864 84 L 864 80 L 860 80 L 860 76 Q 854 78 856 72 Q 862 74 860 68 L 852 68 L 852 76 L 840 76 L 840 84 L 832 84 L 832 88 L 816 88 L 816 84 L 804 84 L 804 80 L 800 80 Q 802 74 796 76 L 796 68 L 792 68 L 792 72 L 780 72 L 780 80 L 784 80 L 784 88 Q 778 86 780 92 L 772 92 L 772 96 L 760 96 L 760 92 L 748 92 Q 750 86 744 88 L 744 80 L 740 80 Q 742 74 736 76 L 735.5 80 L 704 80 L 704 76 L 696 76 L 695.5 80 L 680 80 L 680 76 L 668 76 L 668 68.5 L 664 68 L 664 60 L 648 60 L 647.5 64 L 624 64 Q 626 58 620 60 L 620 72 L 616 72 L 616 76 Q 610 74 612 80 L 588 80 L 588 76 L 580 76 L 580 72 L 576 72 Q 578 66 572 68 L 572 72 L 564 72 Q 566 66 560 68 L 559.5 72 L 536 72 L 536 64 L 532 64 L 532 68 L 516.5 68 L 516 72 L 508 72 L 508 79.5 L 507.5 80 L 468 80 L 468 76 L 460 76 Q 462 70 456 72 L 456 52 L 448 52 L 447.5 56 L 416 56 L 416 68 Q 422 66 420 72 L 416 72 L 415.5 68 L 396 68 L 396 76 L 384 76 L 384 80 L 376 80 L 375.5 84 L 344 84 L 344 80 L 340 80 L 340 76 Q 334 78 336 72 L 328 72 Q 330 66 324 68 L 323.5 72 L 276.5 72 L 275.5 76 L 252 76 Q 254 70 248 72 L 248 64 Q 242 66 244 60 L 228 60 L 228 75.5 L 224 76 L 224 80 L 176 80 L 176 76 L 168.5 76 L 168 72 L 160 72 L 160 68 Q 154 70 156 64 L 148 64 L 147.5 68 L 116 68 Q 118 62 112 64 L 112 68 L 104 68 L 104 72 L 96 72 L 96 76 L 88.5 76 L 88 80 L 80 80 L 80 76 L 64.5 76 L 64 72 L 56 72 L 56 84 L 48 84 L 48 88 L 24 88 L 24 84 L 16 84 L 16 76 Q 10 78 12 72 L 4 72 Q 6 78 0 76 L 0 68 L 12 68 L 12 64 L 16 64 Q 14 58 20 60 L 20 52 L 4.5 52 L 4 48 L 0 48 L 0 32 L 4 32 L 4 40 L 12 40 L 12 44 L 24 44 L 24 40 L 32 40 Q 30 34 36 36 L 36 28 L 32 28 L 31.5 24 L 0 24 L 0 0 Z M 208 4 Q 210 10 204 8 L 204 20 L 208 20 L 208 24 L 236 24 L 236 9 L 232 8 L 232 4 L 208 4 Z M 1232 8 L 1232 24 L 1252 24 L 1252 20 L 1256 20 L 1256 12 Q 1250 14 1252 8 L 1232 8 Z M 668 12 L 668 20 Q 674 18 672 24 L 676 24 L 676 28 L 684 28 L 684 20 Q 678 22 680 16 L 676 16 L 676 12 L 668 12 Z M 744 12 L 744 24 L 752 24 Q 750 18 756 20 L 756 12 L 744 12 Z M 92 16 L 92 24 L 88 24 Q 86 30 92 28 L 92 32 L 100 32 L 101 28 L 108 28 L 108 20 Q 102 22 104 16 L 92 16 Z M 308 16 Q 310 22 304 20 L 304 28 Q 310 26 308 32 L 320 32 L 320 16 L 308 16 Z M 152 20 L 152 24 L 144 24 L 144 36 L 152 36 L 153 40 L 168 40 L 169 44 L 180 44 L 180 40 L 176 40 L 176 28 L 168 28 Q 170 22 164 24 L 164 20 L 152 20 Z M 764 20 L 764 24 L 756 24 L 756 32 L 752 33 L 752 40 L 760 40 L 760 32 Q 766 34 764 28 L 768 28 L 768 20 L 764 20 Z M 1028 20 L 1028 32 L 1036 32 L 1036 24 L 1040 24 L 1040 20 L 1028 20 Z M 1148 20 Q 1150 26 1144 24 L 1144 40 Q 1150 38 1148 44 L 1156 44 Q 1154 50 1160 48 L 1160 52 L 1172 52 L 1172 48 L 1180 48 L 1181 44 L 1188 44 Q 1186 38 1192 40 L 1192 36 L 1196 36 L 1196 32 L 1192 32 L 1192 28 L 1169 28 L 1168 24 L 1160 24 L 1160 20 L 1148 20 Z M 1204 20 L 1204 36 Q 1198 34 1200 40 L 1196 40 L 1196 44 L 1192 44 L 1192 52 L 1200 52 Q 1198 58 1204 56 L 1204 60 L 1220 60 L 1220 56 L 1228 56 L 1228 52 L 1236 52 Q 1234 46 1240 48 L 1240 32 Q 1234 34 1236 28 L 1232 28 L 1232 24 L 1217 24 L 1216 20 L 1204 20 Z M 184 24 L 184 32 L 188 33 L 188 40 L 200 40 L 200 24 L 184 24 Z M 240 24 L 240 32 L 256 32 L 256 24 L 240 24 Z M 376 24 Q 374 30 380 28 L 380 32 L 384 32 L 384 36 L 392 36 L 393 32 L 400 32 L 400 28 L 396 28 L 396 24 L 376 24 Z M 432 24 L 432 28 L 416 28 L 416 32 L 408 32 Q 410 38 404 36 L 404 40 L 396 40 L 396 48 Q 402 46 400 52 L 436 52 L 437 48 L 448 48 L 448 44 L 460 44 L 460 36 L 464 36 L 464 32 Q 458 34 460 28 L 452 28 L 452 24 L 432 24 Z M 600 24 L 600 28 L 588 28 Q 586 34 592 32 L 592 36 L 596 36 L 596 40 L 604 40 L 605 44 L 612 44 L 612 48 L 620 48 L 620 52 L 668 52 L 668 48 L 672 48 L 672 44 L 676 44 L 676 36 Q 670 38 672 32 L 661 32 L 660 28 L 637 28 L 636 24 L 600 24 Z M 696 24 L 696 28 L 688 28 L 688 36 Q 694 34 692 40 L 696 40 L 696 44 L 704 44 L 704 52 L 712 52 L 712 56 L 720 56 L 721 52 L 728 52 Q 726 46 732 48 L 732 44 L 740 44 L 740 36 L 744 36 L 744 28 L 736 28 L 736 24 L 696 24 Z M 976 24 L 976 28 L 980 29 L 980 44 L 988 44 L 988 48 L 1016 48 L 1016 44 L 1020 44 L 1020 40 L 1024 40 L 1024 32 L 1020 32 L 1020 28 L 1016 28 L 1016 24 L 976 24 Z M 64 28 L 64 32 L 56 32 Q 58 38 52 36 L 52 44 Q 58 42 56 48 L 64 48 L 64 52 L 72 52 L 72 48 L 80 48 Q 78 42 84 44 L 84 36 Q 78 38 80 32 L 76 32 L 76 28 L 64 28 Z M 216 28 L 216 32 L 204 32 L 204 52 L 220 52 L 220 56 L 224 56 L 225 52 L 240 52 Q 238 46 244 48 L 244 44 L 248 44 L 248 40 L 240 40 L 240 36 L 232 36 L 232 32 Q 226 34 228 28 L 216 28 Z M 272 28 L 272 32 L 264 32 Q 266 38 260 36 L 260 44 L 256 45 L 256 52 L 252 52 L 252 64 L 256 64 Q 254 70 260 68 L 260 72 L 272 72 L 273 68 L 320 68 L 320 68 L 320 60 L 324 60 L 324 52 L 320 52 L 320 44 L 312 44 L 312 36 L 304 36 L 304 32 L 296 32 L 296 28 L 272 28 Z M 340 28 L 340 32 L 328 32 Q 330 38 324 36 L 324 40 L 320 40 Q 318 46 324 44 L 324 48 L 328 48 L 328 52 L 336 52 Q 334 58 340 56 L 340 60 L 352 60 L 353 56 L 364 56 L 364 48 L 368 48 L 368 40 L 372 40 L 372 32 L 364 32 L 364 28 L 340 28 Z M 472 28 L 472 36 L 476 37 L 476 44 L 488 44 L 489 48 L 500 48 L 500 40 L 492 40 L 492 32 L 484 32 L 484 28 L 472 28 Z M 536 28 L 536 32 L 528 32 L 528 36 L 532 37 L 532 48 L 540 48 L 541 52 L 548 52 L 548 60 L 568 60 Q 566 54 572 56 L 572 52 L 576 52 L 576 40 L 580 40 Q 582 34 576 36 L 576 32 L 568 32 L 568 28 L 536 28 Z M 828 28 L 828 52 L 832 52 L 832 60 Q 838 58 836 64 L 840 64 L 840 68 L 848 68 L 848 64 L 856 64 L 856 60 L 864 60 Q 862 54 868 56 L 868 40 Q 862 42 864 36 L 860 36 L 860 32 L 856 32 L 856 28 L 828 28 Z M 908 28 L 908 32 L 896 32 L 896 36 L 888 36 Q 890 42 884 40 Q 882 46 888 44 L 888 52 L 896 52 L 897 56 L 912 56 L 912 60 L 940 60 L 941 56 L 956 56 Q 954 50 960 52 L 960 48 L 964 48 L 964 40 L 968 40 L 968 32 L 957 32 L 956 28 L 908 28 Z M 1044 28 Q 1046 34 1040 32 L 1040 36 L 1032 36 L 1032 44 Q 1026 42 1028 48 L 1024 48 L 1024 56 L 1060 56 L 1060 52 L 1072 52 L 1072 48 L 1080 48 L 1080 37 L 1076 36 L 1076 32 L 1068 32 L 1068 28 L 1044 28 Z M 1248 28 Q 1250 34 1244 32 L 1244 44 Q 1250 42 1248 48 L 1252 48 L 1252 60 L 1256 60 L 1256 64 L 1268 64 Q 1266 58 1272 60 L 1272 52 L 1276 52 L 1276 40 Q 1270 42 1272 36 L 1268 36 L 1268 28 L 1248 28 Z M 108 32 L 108 36 L 97 36 L 96 40 L 92 40 L 92 48 L 100 48 L 100 56 L 112 56 L 113 60 L 128 60 L 128 64 L 140 64 L 140 60 L 152 60 L 152 56 L 156 56 L 156 48 L 148 48 Q 150 42 144 44 L 144 40 L 140 40 L 140 36 L 132 36 L 132 32 L 108 32 Z M 504 32 L 504 48 Q 510 46 508 52 L 512 52 L 512 56 L 516 56 L 516 60 L 528 60 L 528 48 Q 522 50 524 44 L 520 44 L 520 36 L 516 36 L 516 32 L 504 32 Z M 772 32 Q 774 38 768 36 L 768 40 L 764 40 L 764 44 L 760 44 L 760 48 L 756 48 L 756 52 L 752 52 Q 750 58 756 56 L 756 60 L 760 60 L 760 64 L 780 64 L 780 68 L 792 68 L 792 64 L 796 64 L 796 52 L 800 52 L 800 41 L 796 40 L 796 36 L 777 36 L 776 32 L 772 32 Z M 184 44 L 184 48 L 168 48 Q 166 54 172 52 L 172 56 L 160 56 L 160 60 Q 166 58 164 64 L 168 64 L 168 68 L 176 68 L 177 72 L 188 72 L 188 76 L 204 76 L 205 72 L 220 72 Q 222 66 216 68 L 216 64 L 208 64 Q 210 58 204 60 L 204 56 L 200 56 L 200 48 L 189 48 L 188 44 L 184 44 Z M 384 44 L 384 48 L 376 48 Q 378 54 372 52 L 372 56 L 364 56 L 364 60 L 356 60 L 356 64 L 340 64 L 340 72 L 348 72 Q 346 78 352 76 L 352 80 L 364 80 L 364 76 L 376 76 L 376 72 L 388 72 L 388 68 L 396 68 L 396 60 Q 390 62 392 56 L 388 56 L 388 44 L 384 44 Z M 808 44 L 808 52 L 804 53 L 804 64 L 800 64 Q 798 70 804 68 L 804 72 L 808 72 L 808 76 L 816 76 L 817 80 L 824 80 L 824 56 L 820 56 L 820 48 Q 814 50 816 44 L 808 44 Z M 468 48 Q 470 54 464 52 L 464 60 L 460 60 L 460 68 L 468 68 L 469 72 L 484 72 L 484 76 L 496 76 L 496 72 L 500 72 L 500 64 Q 494 66 496 60 L 492 60 L 492 56 L 488 56 L 488 52 L 480 52 L 480 48 L 468 48 Z M 588 48 Q 590 54 584 52 L 584 56 L 580 56 L 580 64 Q 586 62 584 68 L 588 68 L 588 72 L 596 72 L 596 76 L 608 76 L 608 72 L 612 72 L 612 60 Q 606 62 608 56 L 600 56 Q 602 50 596 52 L 596 48 L 588 48 Z M 36 52 L 36 56 L 28 56 Q 30 62 24 60 L 24 64 L 20 64 L 20 76 Q 26 74 24 80 L 32 80 L 32 84 L 48 84 L 48 76 L 52 76 L 52 65 L 48 64 L 48 56 Q 42 58 44 52 L 36 52 Z M 84 52 L 84 56 L 76 56 L 76 60 L 68 60 L 68 68 Q 74 66 72 72 L 80 72 L 80 76 L 88 76 L 89 72 L 96 72 L 96 64 L 100 64 Q 102 58 96 60 L 96 56 L 92 56 L 92 52 L 84 52 Z M 676 52 L 676 56 L 668 56 L 668 64 Q 674 62 672 68 L 680 68 L 681 72 L 696 72 L 696 60 Q 690 62 692 56 L 688 56 L 688 52 L 676 52 Z M 972 52 L 972 68 Q 978 66 976 72 L 984 72 L 984 76 L 992 76 L 992 80 Q 998 82 996 76 L 1000 76 L 1000 57 L 996 56 L 996 52 L 972 52 Z M 1180 52 Q 1178 58 1184 56 Q 1186 50 1180 52 Z M 724 56 L 724 64 L 720 65 L 720 76 L 724 76 L 725 72 L 740 72 L 740 60 L 736 60 L 736 56 L 724 56 Z M 1076 56 L 1076 60 L 1068 60 Q 1070 66 1064 64 L 1064 76 L 1080 76 L 1080 72 L 1088 72 L 1088 56 L 1076 56 Z M 1104 56 Q 1106 62 1100 60 L 1100 72 L 1104 72 L 1104 76 L 1120 76 L 1120 56 L 1104 56 Z M 1156 56 L 1156 68 L 1172 68 L 1172 56 L 1156 56 Z M 1184 56 Q 1182 62 1188 60 Q 1190 54 1184 56 Z M 1240 56 L 1240 60 L 1232 60 L 1232 64 L 1221 64 L 1220 68 L 1216 68 L 1216 80 L 1224 80 L 1224 84 L 1252 84 L 1252 80 L 1260 80 L 1260 68 Q 1254 70 1256 64 L 1252 64 L 1252 60 L 1244 60 Q 1246 54 1240 56 Z M 568 60 Q 566 66 572 64 Q 574 58 568 60 Z M 704 60 L 704 72 Q 710 70 708 76 L 712 76 L 712 60 L 704 60 Z M 872 60 L 872 64 L 864 64 L 864 76 L 872 76 L 873 80 L 892 80 L 892 64 L 884 64 L 884 60 L 872 60 Z M 1024 64 L 1024 72 Q 1030 70 1028 76 L 1036 76 L 1036 80 L 1052 80 L 1052 76 L 1056 76 L 1056 64 L 1024 64 Z M 756 68 L 756 72 L 744 72 Q 742 78 748 76 L 748 84 Q 754 82 752 88 L 772 88 L 772 84 L 776 84 Q 778 78 772 80 L 772 72 L 764 72 L 764 68 L 756 68 Z " /><path fill="rgb(250,237,218)" stroke="rgb(250,237,218)" stroke-width="1" opacity="1" d="M 428 60 L 440 60 L 440 76 L 424 76 L 424 64 Q 430 66 428 60 Z " /><path fill="rgb(250,237,218)" stroke="rgb(250,237,218)" stroke-width="1" opacity="1" d="M 656 64 L 660 64 L 660 72 L 656 72 L 656 64 Z " /><path fill="rgb(250,237,218)" stroke="rgb(250,237,218)" stroke-width="1" opacity="1" d="M 108 72 L 115.5 72 L 116 76 L 124 76 L 124 84 L 108 84 L 108 72 Z " /><path fill="rgb(250,237,218)" stroke="rgb(250,237,218)" stroke-width="1" opacity="1" d="M 404 72 L 412 72 L 412 80 L 404 80 L 404 72 Z " /><path fill="rgb(250,237,218)" stroke="rgb(250,237,218)" stroke-width="1" opacity="1" d="M 144 76 L 152 76 L 152 88 L 144 88 L 144 76 Z " /><path fill="rgb(250,237,218)" stroke="rgb(250,237,218)" stroke-width="1" opacity="1" d="M 8 80 L 12 80 L 12 88 L 8 88 L 8 80 Z " /><path fill="rgb(250,237,218)" stroke="rgb(250,237,218)" stroke-width="1" opacity="1" d="M 84 84 L 92 84 L 92 96 L 84 96 L 84 84 Z " /><path fill="rgb(250,237,218)" stroke="rgb(250,237,218)" stroke-width="1" opacity="1" d="M 172 84 L 180 84 L 180 92 L 172 92 L 172 84 Z " /><path fill="rgb(250,237,218)" stroke="rgb(250,237,218)" stroke-width="1" opacity="1" d="M 160 88 L 168 88 L 168 96 L 160 96 L 160 88 Z " /><path fill="rgb(250,237,218)" stroke="rgb(250,237,218)" stroke-width="1" opacity="1" d="M 412 88 L 420 88 L 420 96 L 412 96 L 412 88 Z " /><path fill="rgb(250,237,218)" stroke="rgb(250,237,218)" stroke-width="1" opacity="1" d="M 480 88 L 488 88 L 488 96 L 480 96 L 480 88 Z " /><path fill="rgb(250,237,218)" stroke="rgb(250,237,218)" stroke-width="1" opacity="1" d="M 40 96 L 48 96 L 48 100 L 40 100 L 40 96 Z " /><path fill="rgb(250,237,218)" stroke="rgb(250,237,218)" stroke-width="1" opacity="1" d="M 436 104 L 448 104 L 448 112 L 436 112 L 436 104 Z " /><path fill="rgb(173,232,202)" stroke="rgb(173,232,202)" stroke-width="1" opacity="1" d="M 64 0 L 91.5 0 L 92 0.5 L 92 8 L 88 8 L 88 12 L 84 12 Q 86 18 80 16 L 80 20 L 64 20 L 64 0 Z " /><path fill="rgb(173,232,202)" stroke="rgb(173,232,202)" stroke-width="1" opacity="1" d="M 120 0 L 191.5 0 L 192 0.5 L 192 16 L 188 16 L 187.5 20 L 168 20 L 168 16 Q 162 18 164 12 L 152 12 L 152 16 L 144 16 L 144 20 L 136 20 L 136 24 Q 130 22 132 28 L 124 28 L 124 20 L 112 20 L 112 12 Q 106 14 108 8 L 116 8 L 116 4 Q 122 6 120 0 Z " /><path fill="rgb(173,232,202)" stroke="rgb(173,232,202)" stroke-width="1" opacity="1" d="M 236 0 L 319.5 0 L 320 4 L 316 4 L 316 8 L 312 8 L 312 12 Q 306 10 308 16 L 320 16 L 320 32 L 308 32 Q 310 26 304 28 L 304 20.5 L 303.5 20 L 260 20 Q 262 14 256 16 L 256 8 L 244 8 L 244 4 L 236 4 L 236 0 Z M 304 16 Q 302 22 308 20 Q 310 14 304 16 Z " /><path fill="rgb(173,232,202)" stroke="rgb(173,232,202)" stroke-width="1" opacity="1" d="M 336 0 L 379.5 0 L 380 4 L 388 4 Q 386 10 392 8 L 392 16 L 380 16 L 380 20 L 368.5 20 L 367.5 24 L 332 24 L 332 20 L 328 19.5 L 328 4 L 336 4 L 336 0 Z " /><path fill="rgb(173,232,202)" stroke="rgb(173,232,202)" stroke-width="1" opacity="1" d="M 400 0 L 499.5 0 L 500 4 L 504 4 L 504 8 L 508 8 L 508 20 L 504 20 L 504 28 L 500 28 Q 502 34 496 32 L 496 28 L 492 28 L 492 24 L 488 24 L 488 20 Q 482 22 484 16 L 452 16 L 451.5 20 L 416 20 L 416 16 Q 410 18 412 12 L 404 12 Q 406 6 400 8 L 400 0 Z " /><path fill="rgb(173,232,202)" stroke="rgb(173,232,202)" stroke-width="1" opacity="1" d="M 512 0 L 579.5 0 L 580 0.5 L 580 16 L 572 16 L 572 20 L 564 20 Q 566 26 560 24 L 560 20 L 548 20 L 547.5 24 L 524 24 L 524 20 L 520 20 Q 522 14 516 16 L 516 8.5 L 512 8 L 512 0 Z " /><path fill="rgb(173,232,202)" stroke="rgb(173,232,202)" stroke-width="1" opacity="1" d="M 592 0 L 659.5 0 L 660 0.5 L 660 11.5 L 664 12 L 664 20 L 660 20 L 659.5 16 L 648 16 L 647.5 20 L 624 20 L 623.5 16 L 600 16 L 600 12 L 596 12 Q 598 6 592 8 L 592 0 Z " /><path fill="rgb(173,232,202)" stroke="rgb(173,232,202)" stroke-width="1" opacity="1" d="M 676 0 L 731.5 0 L 732 4 L 740 4 L 740 12 L 736 12 L 736 16 L 732 16 L 731.5 20 L 696 20 L 696 16 L 688 16 L 688 12 Q 682 14 684 8 L 676 8 L 676 0 Z " /><path fill="rgb(173,232,202)" stroke="rgb(173,232,202)" stroke-width="1" opacity="1" d="M 756 0 L 768 0 L 768 12 L 756 12 L 756 20 Q 750 18 752 24 L 744 24 L 744 12 L 756 12 L 756 0 Z " /><path fill="rgb(173,232,202)" stroke="rgb(173,232,202)" stroke-width="1" opacity="1" d="M 792 0 L 807.5 0 L 808.5 4 L 820 4 L 820 8 L 824 8.5 L 824 28 L 812.5 28 L 811.5 32 L 788 32 L 788 28 L 776 28 L 776 16.5 L 772 16 L 772 12 L 776 12 L 776 8 Q 782 10 780 4 L 792 4 L 792 0 Z " /><path fill="rgb(173,232,202)" stroke="rgb(173,232,202)" stroke-width="1" opacity="1" d="M 848 0 L 899.5 0 L 900 0.5 L 900 12 L 896 12 L 896 23.5 L 892 24 L 892 28 L 884 28 L 883.5 32 L 872 32 L 872 28 Q 866 30 868 24 L 848.5 24 L 848 20 L 840 20 Q 842 14 836 16 L 836 8 Q 842 10 840 4 L 848 4 L 848 0 Z " /><path fill="rgb(173,232,202)" stroke="rgb(173,232,202)" stroke-width="1" opacity="1" d="M 936 0 L 951.5 0 L 952.5 4 L 964 4 L 964 8 L 968 8.5 L 968 20 L 944.5 20 L 943.5 24 L 928 24 L 928 20 L 920 20 L 920 16 Q 914 18 916 12 Q 922 14 920 8 L 928 8 L 928 4 L 936 4 L 936 0 Z " /><path fill="rgb(173,232,202)" stroke="rgb(173,232,202)" stroke-width="1" opacity="1" d="M 980 0 L 1031.5 0 L 1032 0.5 L 1032 12 Q 1026 10 1028 16 L 1020 16 L 1020 20 L 1008 20 L 1007.5 16 L 988 16 Q 990 10 984 12 L 984 4 Q 978 6 980 0 Z " /><path fill="rgb(173,232,202)" stroke="rgb(173,232,202)" stroke-width="1" opacity="1" d="M 1044 0 L 1103.5 0 L 1104 4 L 1115.5 4 L 1116 8 L 1124 8 L 1124 0 L 1136 0 L 1136 4 L 1148 4 L 1148 16 L 1140 16 L 1140 24 Q 1134 22 1136 28 L 1128 28 L 1128 32 L 1132 32 L 1132 36 L 1136 36 L 1136 40 L 1140 40 Q 1138 46 1144 44 L 1144 52 L 1148 52.5 L 1148 64 L 1132.5 64 L 1132 60 L 1124 60 L 1124 52 Q 1118 54 1120 48 L 1100.5 48 L 1099.5 44 L 1088 44 Q 1090 38 1084 40 L 1084 32 L 1092 32 L 1092 24.5 L 1092.5 24 L 1119.5 24 L 1120 20 L 1116 20 L 1116 8 L 1112 8 L 1112 12 L 1104 12 Q 1106 18 1100 16 L 1099.5 12 L 1080 12 L 1080 20 L 1076 20 Q 1078 26 1072 24 L 1071.5 20 L 1048 20 L 1048 16 L 1044 15.5 L 1044 0 Z M 1120 24 Q 1118 30 1124 28 Q 1126 22 1120 24 Z " /><path fill="rgb(173,232,202)" stroke="rgb(173,232,202)" stroke-width="1" opacity="1" d="M 1164 0 L 1207.5 0 L 1208 0.5 L 1208 12 L 1196 12 L 1196 16 L 1188 16 L 1187.5 20 L 1164 20 L 1164 0 Z " /><path fill="rgb(173,232,202)" stroke="rgb(173,232,202)" stroke-width="1" opacity="1" d="M 208 4 L 232 4 L 232 8 L 236 8.5 L 236 24 L 208 24 L 208 20 L 204 19.5 L 204 8 Q 210 10 208 4 Z " /><path fill="rgb(173,232,202)" stroke="rgb(173,232,202)" stroke-width="1" opacity="1" d="M 1232 8 L 1252 8 Q 1250 14 1256 12 L 1256 20 L 1252 20 L 1251.5 24 L 1232 24 L 1232 28 L 1236 28 Q 1234 34 1240 32 L 1240 48 Q 1234 46 1236 52 L 1228 52 L 1228 56 L 1220 56 L 1220 60 L 1204 60 L 1204 56 Q 1198 58 1200 52 L 1192 52 L 1192 44 L 1196 44 L 1196 40 L 1200 40 Q 1198 34 1204 36 L 1204 20 L 1216 20 L 1216.5 24 L 1232 24 L 1232 8 Z " /><path fill="rgb(173,232,202)" stroke="rgb(173,232,202)" stroke-width="1" opacity="1" d="M 668 12 L 676 12 L 676 16 L 680 16 Q 678 22 684 20 L 684 28 L 676 28 L 676 24 L 672 24 Q 674 18 668 20 L 668 12 Z " /><path fill="rgb(173,232,202)" stroke="rgb(173,232,202)" stroke-width="1" opacity="1" d="M 92 16 L 104 16 Q 102 22 108 20 L 108 28 L 100.5 28 L 100 32 L 92 32 L 92 28 Q 86 30 88 24 L 92 24 L 92 16 Z " /><path fill="rgb(173,232,202)" stroke="rgb(173,232,202)" stroke-width="1" opacity="1" d="M 152 20 L 164 20 L 164 24 Q 170 22 168 28 L 176 28 L 176 39.5 L 180 40 L 180 44 L 168.5 44 L 167.5 40 L 152.5 40 L 152 36 L 144 36 L 144 24 L 152 24 L 152 20 Z " /><path fill="rgb(173,232,202)" stroke="rgb(173,232,202)" stroke-width="1" opacity="1" d="M 764 20 L 768 20 L 768 28 L 764 28 Q 766 34 760 32 L 760 40 L 752 40 L 752 32.5 L 756 32 L 756 24 L 764 24 L 764 20 Z " /><path fill="rgb(173,232,202)" stroke="rgb(173,232,202)" stroke-width="1" opacity="1" d="M 1028 20 L 1040 20 L 1040 24 L 1036 24 L 1036 32 L 1028 32 L 1028 20 Z " /><path fill="rgb(173,232,202)" stroke="rgb(173,232,202)" stroke-width="1" opacity="1" d="M 1148 20 L 1160 20 L 1160 24 L 1168 24 L 1168.5 28 L 1191.5 28 L 1192 32 L 1196 32 L 1196 36 L 1192 36 L 1192 40 Q 1186 38 1188 44 L 1180.5 44 L 1180 48 L 1172 48 L 1172 52 L 1160 52 L 1160 48 Q 1154 50 1156 44 L 1148 44 Q 1150 38 1144 40 L 1144 24 Q 1150 26 1148 20 Z " /><path fill="rgb(173,232,202)" stroke="rgb(173,232,202)" stroke-width="1" opacity="1" d="M 0 24 L 31.5 24 L 32 28 L 36 28 L 36 36 Q 30 34 32 40 L 24 40 L 24 44 L 12 44 L 12 40 L 4 40 L 4 32.5 L 0 32 L 0 24 Z " /><path fill="rgb(173,232,202)" stroke="rgb(173,232,202)" stroke-width="1" opacity="1" d="M 184 24 L 200 24 L 200 40 L 188 40 L 188 32.5 L 184 32 L 184 24 Z " /><path fill="rgb(173,232,202)" stroke="rgb(173,232,202)" stroke-width="1" opacity="1" d="M 240 24 L 256 24 L 256 32 L 240 32 L 240 24 Z " /><path fill="rgb(173,232,202)" stroke="rgb(173,232,202)" stroke-width="1" opacity="1" d="M 376 24 L 395.5 24 L 396 28 L 400 28 L 400 32 L 392.5 32 L 392 36 L 384 36 L 384 32 L 380 32 L 380 28 Q 374 30 376 24 Z " /><path fill="rgb(173,232,202)" stroke="rgb(173,232,202)" stroke-width="1" opacity="1" d="M 432 24 L 452 24 L 452 28 L 460 28 Q 458 34 464 32 L 464 36 L 460 36 L 460 44 L 448 44 L 448 48 L 436.5 48 L 435.5 52 L 400 52 Q 402 46 396 48 L 396 40 L 404 40 L 404 36 Q 410 38 408 32 L 416 32 L 416 28 L 432 28 L 432 24 Z " /><path fill="rgb(173,232,202)" stroke="rgb(173,232,202)" stroke-width="1" opacity="1" d="M 600 24 L 635.5 24 L 636.5 28 L 659.5 28 L 660.5 32 L 672 32 Q 670 38 676 36 L 676 44 L 672 44 L 672 48 L 668 48 L 667.5 52 L 620 52 L 620 48 L 612 48 L 612 44 L 604.5 44 L 604 40 L 596 40 L 596 36 L 592 36 L 592 32 Q 586 34 588 28 L 600 28 L 600 24 Z " /><path fill="rgb(173,232,202)" stroke="rgb(173,232,202)" stroke-width="1" opacity="1" d="M 696 24 L 735.5 24 L 736 28 L 744 28 L 744 36 L 740 36 L 740 44 L 732 44 L 732 48 Q 726 46 728 52 L 720.5 52 L 720 56 L 712 56 L 712 52 L 704 52 L 704 44 L 696 44 L 696 40 L 692 40 Q 694 34 688 36 L 688 28 L 696 28 L 696 24 Z " /><path fill="rgb(173,232,202)" stroke="rgb(173,232,202)" stroke-width="1" opacity="1" d="M 976 24 L 1015.5 24 L 1016 28 L 1020 28 L 1020 32 L 1024 32 L 1024 40 L 1020 40 L 1020 44 L 1016 44 L 1015.5 48 L 988 48 L 988 44 L 980 44 L 980 28.5 L 976 28 L 976 24 Z " /><path fill="rgb(173,232,202)" stroke="rgb(173,232,202)" stroke-width="1" opacity="1" d="M 64 28 L 76 28 L 76 32 L 80 32 Q 78 38 84 36 L 84 44 Q 78 42 80 48 L 72 48 L 72 52 L 64 52 L 64 48 L 56 48 Q 58 42 52 44 L 52 36 Q 58 38 56 32 L 64 32 L 64 28 Z " /><path fill="rgb(173,232,202)" stroke="rgb(173,232,202)" stroke-width="1" opacity="1" d="M 216 28 L 228 28 Q 226 34 232 32 L 232 36 L 240 36 L 240 40 L 248 40 L 248 44 L 244 44 L 244 48 Q 238 46 240 52 L 224.5 52 L 224 56 L 220 56 L 219.5 52 L 204 52 L 204 32 L 216 32 L 216 28 Z " /><path fill="rgb(173,232,202)" stroke="rgb(173,232,202)" stroke-width="1" opacity="1" d="M 272 28 L 295.5 28 L 296 32 L 304 32 L 304 36 L 312 36 L 312 44 L 320 44 L 320 40 L 324 40 L 324 36 Q 330 38 328 32 L 339.5 32 L 340.5 28 L 364 28 L 364 32 L 372 32 L 372 40 L 368 40 L 368 47.5 L 364 48 L 364 56 L 372 56 L 372 52 Q 378 54 376 48 L 384 48 Q 382 42 388 44 L 388 56 L 392 56 Q 390 62 396 60 L 396 68 L 416 68 L 416 56 L 447.5 56 L 448 52 L 456 52 L 456 71.5 L 460 72 L 460 76 L 468 76 L 468.5 80 L 508 80 L 508 72 L 516 72 L 516.5 68 L 531.5 68 L 532 64 L 536 64 L 536 72 L 560 72 Q 558 66 564 68 L 564 72 L 572 72 Q 570 66 576 68 L 576 72 Q 582 70 580 76 L 588 76 L 588.5 80 L 612 80 L 612 76 L 616 76 Q 614 70 620 72 L 620 60 L 624 60 L 624.5 64 L 648 64 L 648.5 60 L 664 60 L 664 67.5 L 668 68 L 668 76 L 679.5 76 L 680.5 80 L 696 80 L 696 76 L 704 76 L 704.5 80 L 736 80 Q 734 74 740 76 Q 738 82 744 80 L 744 88 Q 750 86 748 92 L 759.5 92 L 760.5 96 L 772 96 L 772 92 L 780 92 Q 778 86 784 88 L 784 80 L 780 80 L 780 72 L 792 72 L 792 68 L 780.5 68 L 779.5 64 L 760 64 L 760 60 L 756 60 L 756 56 Q 750 58 752 52 L 756 52 L 756 48 L 760 48 L 760 44 L 764 44 L 764 40 L 768 40 L 768 36 L 772 36 Q 770 30 776 32 L 776.5 36 L 796 36 L 796 40 L 800 40.5 L 800 52 L 796 52 L 796 63.5 L 792 64 L 792 68 L 796 68 L 796 76 L 800 76 L 800 80 Q 806 78 804 84 L 815.5 84 L 816.5 88 L 832 88 L 832 84 L 840 84 L 840 76 L 852 76 L 852 68 L 860 68 L 860 72 Q 854 70 856 76 L 860 76 L 860 80 L 864 80 L 864.5 84 L 900 84 L 900 76.5 L 904 76 L 904 68 L 916 68 L 916.5 72 L 936 72 L 936.5 68 L 955.5 68 L 956 64 L 964 64 L 964 68 L 968 68 L 968 72 Q 974 70 972 76 L 980 76 L 980.5 80 L 992 80 L 992 76 L 984 76 L 984 72 L 976 72 Q 978 66 972 68 L 972 52 L 996 52 L 996 56 L 1000 56.5 L 1000 76 L 996 76 L 996 80 Q 990 78 992 84 L 1000 84 L 1000 80 Q 1006 82 1004 76 L 1012 76 L 1012 80 L 1023.5 80 L 1024.5 84 L 1036 84 L 1036 88 L 1048 88 L 1048.5 84 L 1063.5 84 L 1064.5 80 L 1083.5 80 L 1084 76 L 1092 76 L 1092 80 L 1103.5 80 L 1104.5 84 L 1132 84 L 1132 80 L 1144 80 L 1144 72 L 1148 72 L 1148.5 76 L 1180 76 L 1180 68 L 1192 68 L 1192 72 L 1200 72 L 1200 80 L 1216 80 L 1216 68.5 L 1220 68 L 1220 64 L 1232 64 L 1232 60 L 1240 60 Q 1238 54 1244 56 L 1244 60 L 1252 60 L 1252 48.5 L 1248 48 L 1248 44 L 1244 44 L 1244 32 L 1248 32 L 1248.5 28 L 1268 28 L 1268 36 L 1272 36 Q 1270 42 1276 40 L 1276 52 L 1272 52 L 1272 60 Q 1266 58 1268 64 L 1256 64 L 1256 68 L 1260 68 L 1260 80 L 1252 80 L 1251.5 84 L 1224 84 L 1224 80 L 1216 80 L 1216 88 L 1227.5 88 L 1228.5 92 L 1248 92 L 1248 88 L 1255.5 88 L 1256 84 L 1264 84 L 1264 76 L 1275.5 76 L 1276 72 L 1280 72 L 1280 215.5 L 1279.5 216 L 1272 216 Q 1274 222 1268 220 L 1268 236 L 1264 236 L 1264 244 L 1256 244 L 1256 236 L 1260 235.5 L 1260 216 L 1256 216 L 1256 212 L 1252 212 L 1252 208 Q 1246 210 1248 204 L 1228 204 L 1228 208 L 1224 208 L 1224 212 L 1220 212.5 L 1220 236 Q 1226 234 1224 240 L 1216 240 L 1216 252 L 1204 252 L 1204 244 L 1200 244 Q 1202 238 1196 240 L 1196 232 L 1184 232 L 1184 220 L 1176 220 L 1176 228 L 1168 228 L 1168 232 L 1164 232 Q 1166 238 1160 236 L 1160 251.5 L 1156 252 L 1156 244 L 1144 244 L 1144 248 Q 1138 246 1140 252 L 1124 252 L 1124 244 L 1116 244 L 1116 240 L 1096 240 L 1096 248 Q 1090 246 1092 252 L 1080 252 L 1080 240.5 L 1076 240 L 1076 236 L 1048 236 Q 1050 242 1044 240 L 1044 248 L 1040 248 L 1040 260 L 1016 260 L 1016 252 L 996 252 L 996 240 L 976 240 Q 978 246 972 244 L 972 251.5 L 971.5 252 L 924 252 L 924 236 L 900 236 L 900 252 L 864 252 L 864 248 L 868 247.5 L 868 232.5 L 872 231.5 L 872 220 L 868 220 L 868 212 L 864 212 L 863.5 208 L 836 208 L 836 212 L 828 212 L 828 216 L 824 216.5 L 824 244 L 828 244 L 828 248 Q 834 246 832 252 L 800.5 252 L 800 251.5 L 800 236 L 780 236 L 780 252 L 772 252 L 772 236.5 L 768 236 L 768 232 L 764 232 L 764 224 L 740 224 L 740 228 L 736 228 L 736 232 L 732 232 Q 734 238 728 236 L 728 252 L 716 252 L 716 260 L 708.5 260 L 708 264 L 700 264 Q 702 258 696 260 L 696 252 L 692 252 L 692 268 L 688 268 L 688 272 Q 682 270 684 276 L 668 276 L 668 268 L 664 268 Q 666 262 660 264 L 659.5 268 L 644 268 L 644 264 L 640 263.5 L 640 252 L 608.5 252 L 607.5 248 L 588 248 L 587.5 252 L 564 252 L 564 240 L 548 240 L 548 252 L 544 252 L 544 244 L 536 244 L 536 248 L 524.5 248 L 523.5 252 L 504 252 L 504 240.5 L 500 240 L 500 236 L 476 236 Q 478 242 472 240 L 472 251.5 L 468 252 L 468 256 L 456 256 L 456 268 L 444 268 L 444 256 L 456 256 L 456 252 L 436 252 Q 438 246 432 248 L 432 240 Q 426 242 428 236 L 408 236 L 408 240 L 404 240.5 L 404 252 L 384 252 L 384 259.5 L 380 260 L 380 268 L 356 268 L 356 252 L 340 252 L 340 240.5 L 336 240 L 336 236 L 308 236 L 308 243.5 L 304 244 L 304 252 L 296 252 L 296 264 L 276 264 Q 278 258 272 260 L 272 252 L 252 252 L 252 267.5 L 248 268 L 248 276 L 228 276 L 228 272 L 224 272 L 224 268 Q 218 270 220 264 L 212 264 L 212 256 L 216 255.5 L 216 236 L 212 236 L 211.5 232 L 188 232 L 188 236 L 184 236.5 L 184 255.5 L 180 256 L 180 260 L 172 260 L 172 264 L 168 264 L 167.5 268 L 144 268 L 144 264 L 140 263.5 L 140 252 L 132 252 L 131.5 248 L 112 248 L 112 252 L 104 252 L 104 264 Q 98 262 100 268 L 92 268 L 92 264 L 88 263.5 L 88 252 L 104 252 L 104 244 L 100 244 L 100 240 Q 94 242 96 236 L 80 236 L 80 240 L 76 240.5 L 76 252 L 72 252 L 72 244 L 52 244 L 51.5 248 L 20 248 L 20.5 244 L 43.5 244 L 44 240 L 52 240 Q 50 234 56 236 L 56 208 L 52 208 L 52 204 Q 46 206 48 200 L 40 200 L 39.5 196 L 12 196 L 12 204 L 8 204.5 L 8 236 L 12 236 L 12 240 Q 18 238 16 244 L 12 244 L 11.5 240 L 0.5 240 L 0 239.5 L 0 76 Q 6 78 4 72 L 12 72 Q 10 78 16 76 L 16 84 L 24 84 L 24 88 L 48 88 L 48 84 L 32.5 84 L 32 80 L 24 80 L 24 76 L 20 75.5 L 20 64 L 24 64 L 24 60 Q 30 62 28 56 L 35.5 56 L 36 52 L 44 52 Q 42 58 48 56 L 48 64 L 52 64 L 52 76 L 48 76 L 48 84 L 56 84 L 56 72 L 64 72 L 64.5 76 L 80 76 L 80 72 L 72 72 Q 74 66 68 68 L 68 60 L 76 60 L 76 56 L 83.5 56 L 84 52 L 92 52 L 92 56 L 96 56 L 96 60 Q 102 58 100 64 L 96 64 L 96 72 L 104 72 L 104 68 L 112 68 Q 110 62 116 64 L 116.5 68 L 148 68 L 148 64 L 156 64 L 156 68 Q 162 66 160 72 L 168 72 L 168 76 L 176 76 L 176.5 80 L 224 80 L 224 76 L 228 75.5 L 228 60 L 244 60 Q 242 66 248 64 L 248 72 Q 254 70 252 76 L 276 76 L 276.5 72 L 323.5 72 L 324 68 L 328 68 L 328 72 L 336 72 L 336 76 L 340 76 L 340 80 L 344 80 L 344.5 84 L 376 84 L 376 80 L 384 80 L 384 76 L 396 76 L 396 68 L 388 68 L 387.5 72 L 376 72 L 375.5 76 L 364 76 L 363.5 80 L 352 80 L 352 76 Q 346 78 348 72 L 340 72 L 340 64 L 356 64 L 356 60 L 364 60 L 364 56 L 352.5 56 L 351.5 60 L 340 60 L 340 56 Q 334 58 336 52 L 328 52 L 328 48 L 324 48 Q 326 42 320 44 L 320 51.5 L 324 52 L 324 60 L 320 60 L 320 67.5 L 319.5 68 L 272.5 68 L 271.5 72 L 260 72 L 260 68 Q 254 70 256 64 L 252 64 L 252 52 L 256 52 L 256 44.5 L 260 44 L 260 36 Q 266 38 264 32 L 272 32 L 272 28 Z M 428 60 Q 430 66 424 64 L 424 76 L 440 76 L 440 60 L 428 60 Z M 1252 60 Q 1250 66 1256 64 Q 1258 58 1252 60 Z M 656 64 L 656 72 L 660 72 L 660 64 L 656 64 Z M 416 68 Q 414 74 420 72 Q 422 66 416 68 Z M 88 72 L 88 76 L 96 76 L 96 72 L 88 72 Z M 108 72 L 108 84 L 124 84 L 124 76 L 116 76 L 116 72 L 108 72 Z M 404 72 L 404 80 L 412 80 L 412 72 L 404 72 Z M 80 76 L 80 80 L 88 80 L 88 76 L 80 76 Z M 144 76 L 144 88 L 152 88 L 152 76 L 144 76 Z M 8 80 L 8 88 L 12 88 L 12 80 L 8 80 Z M 84 84 L 84 96 L 92 96 L 92 84 L 84 84 Z M 172 84 L 172 92 L 180 92 L 180 84 L 172 84 Z M 160 88 L 160 96 L 168 96 L 168 88 L 160 88 Z M 412 88 L 412 96 L 420 96 L 420 88 L 412 88 Z M 480 88 L 480 96 L 488 96 L 488 88 L 480 88 Z M 40 96 L 40 100 L 48 100 L 48 96 L 40 96 Z M 436 104 L 436 112 L 448 112 L 448 104 L 436 104 Z M 24 164 L 24 172 L 32 172 L 32 164 L 24 164 Z M 64 176 L 64 180 L 56 180 L 56 196 L 76 196 L 76 192 L 80 192 L 80 176 L 64 176 Z M 1236 176 Q 1238 182 1232 180 L 1232 188 L 1240 188 L 1240 176 L 1236 176 Z M 1256 184 L 1256 200 L 1260 200 L 1260 208 L 1268 208 Q 1266 202 1272 204 L 1272 184 L 1256 184 Z M 1204 192 L 1204 200 L 1212 200 L 1212 192 L 1204 192 Z M 952 196 L 952 200 L 944 200 Q 946 206 940 204 L 940 208 L 936 208 L 936 236 L 937 236 L 944 236 L 944 240 L 968 240 L 968 236 L 972 236 L 972 232 L 980 232 L 980 200 L 976 200 L 976 196 L 952 196 Z M 1168 204 L 1168 216 L 1180 216 L 1180 204 L 1168 204 Z M 76 208 L 76 220 L 84 220 L 84 208 L 76 208 Z M 1264 212 L 1264 216 L 1272 216 L 1272 212 L 1264 212 Z M 1196 216 L 1196 228 L 1208 228 L 1208 216 L 1196 216 Z M 260 232 L 260 244 L 268 244 Q 266 238 272 240 L 272 232 L 260 232 Z M 368 232 L 368 244 L 376 244 L 376 232 L 368 232 Z M 152 240 L 152 244 L 148 245 L 148 260 L 168 260 L 168 256 L 172 256 L 172 244 L 164 244 L 164 240 L 152 240 Z M 228 240 L 228 248 L 224 248 L 224 260 L 228 260 L 228 264 L 240 264 L 240 256 L 244 256 L 244 240 L 228 240 Z " /><path fill="rgb(173,232,202)" stroke="rgb(173,232,202)" stroke-width="1" opacity="1" d="M 472 28 L 483.5 28 L 484 32 L 492 32 L 492 40 L 500 40 L 500 48 L 488.5 48 L 487.5 44 L 476 44 L 476 36.5 L 472 36 L 472 28 Z " /><path fill="rgb(173,232,202)" stroke="rgb(173,232,202)" stroke-width="1" opacity="1" d="M 536 28 L 567.5 28 L 568 32 L 576 32 L 576 36 Q 582 34 580 40 L 576 40 L 576 52 L 572 52 L 572 56 Q 566 54 568 60 Q 574 58 572 64 L 568 64 L 567.5 60 L 548 60 L 548 52 L 540.5 52 L 540 48 L 532 48 L 532 36.5 L 528 36 L 528 32 L 536 32 L 536 28 Z " /><path fill="rgb(173,232,202)" stroke="rgb(173,232,202)" stroke-width="1" opacity="1" d="M 828 28 L 856 28 L 856 32 L 860 32 L 860 36 L 864 36 Q 862 42 868 40 L 868 56 Q 862 54 864 60 L 856 60 L 856 64 L 848 64 L 848 68 L 840 68 L 840 64 L 836 64 Q 838 58 832 60 L 832 52 L 828 51.5 L 828 28 Z " /><path fill="rgb(173,232,202)" stroke="rgb(173,232,202)" stroke-width="1" opacity="1" d="M 908 28 L 955.5 28 L 956.5 32 L 968 32 L 968 40 L 964 40 L 964 48 L 960 48 L 960 52 Q 954 50 956 56 L 940.5 56 L 939.5 60 L 912 60 L 912 56 L 896.5 56 L 896 52 L 888 52 L 888 44 Q 882 46 884 40 Q 890 42 888 36 L 896 36 L 896 32 L 908 32 L 908 28 Z " /><path fill="rgb(173,232,202)" stroke="rgb(173,232,202)" stroke-width="1" opacity="1" d="M 1044 28 L 1067.5 28 L 1068 32 L 1076 32 L 1076 36 L 1080 36.5 L 1080 48 L 1072 48 L 1071.5 52 L 1060 52 L 1059.5 56 L 1024 56 L 1024 48 L 1028 48 Q 1026 42 1032 44 L 1032 36 L 1040 36 L 1040 32 Q 1046 34 1044 28 Z " /><path fill="rgb(173,232,202)" stroke="rgb(173,232,202)" stroke-width="1" opacity="1" d="M 108 32 L 132 32 L 132 36 L 140 36 L 140 40 L 144 40 L 144 44 Q 150 42 148 48 L 156 48 L 156 56 L 152 56 L 151.5 60 L 140 60 L 139.5 64 L 128 64 L 127.5 60 L 112.5 60 L 111.5 56 L 100 56 L 100 48 L 92 48 L 92 40 L 96 40 L 96.5 36 L 108 36 L 108 32 Z " /><path fill="rgb(173,232,202)" stroke="rgb(173,232,202)" stroke-width="1" opacity="1" d="M 504 32 L 515.5 32 L 516 36 L 520 36 L 520 44 L 524 44 Q 522 50 528 48 L 528 60 L 516 60 L 516 56 L 512 56 L 512 52 L 508 52 Q 510 46 504 48 L 504 32 Z " /><path fill="rgb(173,232,202)" stroke="rgb(173,232,202)" stroke-width="1" opacity="1" d="M 184 44 L 188 44 L 188.5 48 L 200 48 L 200 56 L 204 56 L 204 60 Q 210 58 208 64 L 216 64 L 216 68 Q 222 66 220 72 L 204.5 72 L 203.5 76 L 188 76 L 188 72 L 176.5 72 L 176 68 L 168 68 L 168 64 L 164 64 Q 166 58 160 60 L 160 56 L 172 56 L 172 52 Q 166 54 168 48 L 183.5 48 L 184 44 Z " /><path fill="rgb(173,232,202)" stroke="rgb(173,232,202)" stroke-width="1" opacity="1" d="M 808 44 L 816 44 Q 814 50 820 48 L 820 56 L 824 56 L 824 80 L 816.5 80 L 816 76 L 808 76 L 808 72 L 804 72 L 804 68 Q 798 70 800 64 L 804 64 L 804 52.5 L 808 52 L 808 44 Z " /><path fill="rgb(173,232,202)" stroke="rgb(173,232,202)" stroke-width="1" opacity="1" d="M 0 48 L 4 48 L 4.5 52 L 20 52 L 20 60 L 16 60 L 16 64 Q 10 62 12 68 L 0 68 L 0 48 Z " /><path fill="rgb(173,232,202)" stroke="rgb(173,232,202)" stroke-width="1" opacity="1" d="M 468 48 L 479.5 48 L 480 52 L 488 52 L 488 56 L 492 56 L 492 60 L 496 60 Q 494 66 500 64 L 500 72 L 496 72 L 495.5 76 L 484 76 L 484 72 L 468.5 72 L 468 68 L 460 68 L 460 60 L 464 60 L 464 52 Q 470 54 468 48 Z " /><path fill="rgb(173,232,202)" stroke="rgb(173,232,202)" stroke-width="1" opacity="1" d="M 588 48 L 596 48 L 596 52 Q 602 50 600 56 L 608 56 Q 606 62 612 60 L 612 72 L 608 72 L 607.5 76 L 596 76 L 596 72 L 588 72 L 588 68 L 584 68 Q 586 62 580 64 L 580 56 L 584 56 L 584 52 Q 590 54 588 48 Z " /><path fill="rgb(173,232,202)" stroke="rgb(173,232,202)" stroke-width="1" opacity="1" d="M 676 52 L 688 52 L 688 56 L 692 56 Q 690 62 696 60 L 696 72 L 680.5 72 L 680 68 L 672 68 Q 674 62 668 64 L 668 56 L 676 56 L 676 52 Z " /><path fill="rgb(173,232,202)" stroke="rgb(173,232,202)" stroke-width="1" opacity="1" d="M 1180 52 L 1184 52 L 1184 56 Q 1190 54 1188 60 L 1184 60 L 1184 56 Q 1178 58 1180 52 Z " /><path fill="rgb(173,232,202)" stroke="rgb(173,232,202)" stroke-width="1" opacity="1" d="M 724 56 L 735.5 56 L 736 60 L 740 60 L 740 72 L 724.5 72 L 724 76 L 720 76 L 720 64.5 L 724 64 L 724 56 Z " /><path fill="rgb(173,232,202)" stroke="rgb(173,232,202)" stroke-width="1" opacity="1" d="M 1076 56 L 1088 56 L 1088 72 L 1080 72 L 1079.5 76 L 1064 76 L 1064 64 Q 1070 66 1068 60 L 1076 60 L 1076 56 Z " /><path fill="rgb(173,232,202)" stroke="rgb(173,232,202)" stroke-width="1" opacity="1" d="M 1104 56 L 1120 56 L 1120 76 L 1104 76 L 1104 72 L 1100 71.5 L 1100 60 Q 1106 62 1104 56 Z " /><path fill="rgb(173,232,202)" stroke="rgb(173,232,202)" stroke-width="1" opacity="1" d="M 1156 56 L 1172 56 L 1172 68 L 1156 68 L 1156 56 Z " /><path fill="rgb(173,232,202)" stroke="rgb(173,232,202)" stroke-width="1" opacity="1" d="M 704 60 L 712 60 L 712 76 L 708 76 Q 710 70 704 72 L 704 60 Z " /><path fill="rgb(173,232,202)" stroke="rgb(173,232,202)" stroke-width="1" opacity="1" d="M 872 60 L 883.5 60 L 884 64 L 892 64 L 892 80 L 872.5 80 L 872 76 L 864 76 L 864 64 L 872 64 L 872 60 Z " /><path fill="rgb(173,232,202)" stroke="rgb(173,232,202)" stroke-width="1" opacity="1" d="M 1024 64 L 1056 64 L 1056 76 L 1052 76 L 1051.5 80 L 1036 80 L 1036 76 L 1028 76 Q 1030 70 1024 72 L 1024 64 Z " /><path fill="rgb(173,232,202)" stroke="rgb(173,232,202)" stroke-width="1" opacity="1" d="M 756 68 L 763.5 68 L 764 72 L 772 72 L 772 80 Q 778 78 776 84 L 772 84 L 771.5 88 L 752 88 Q 754 82 748 84 L 748 76 Q 742 78 744 72 L 756 72 L 756 68 Z " /><path fill="rgb(173,232,202)" stroke="rgb(173,232,202)" stroke-width="1" opacity="1" d="M 1232 244 L 1251.5 244 L 1252 248 L 1232.5 248 L 1232 244 Z " /><path fill="rgb(173,232,202)" stroke="rgb(173,232,202)" stroke-width="1" opacity="1" d="M 1276 248 Q 1282 246 1280 252 Q 1274 254 1276 248 Z " /><path fill="rgb(173,232,202)" stroke="rgb(173,232,202)" stroke-width="1" opacity="1" d="M 184 260 Q 190 258 188 264 L 196 264 L 196 272 L 184 272 L 184 260 Z " /><path fill="rgb(173,232,202)" stroke="rgb(173,232,202)" stroke-width="1" opacity="1" d="M 616 260 L 628 260 L 628 272 L 616 272 L 616 260 Z " /><path fill="rgb(173,232,202)" stroke="rgb(173,232,202)" stroke-width="1" opacity="1" d="M 1044 260 L 1051.5 260 L 1052 264 L 1060 264 L 1060 280 L 1056 280 L 1055.5 284 L 1040 284 L 1040 280 L 1036 279.5 L 1036 268 L 1040 268 L 1040 264 Q 1046 266 1044 260 Z " /><path fill="rgb(173,232,202)" stroke="rgb(173,232,202)" stroke-width="1" opacity="1" d="M 1084 260 L 1096 260 L 1096 276 L 1080 276 Q 1082 270 1076 272 L 1076 264 L 1084 264 L 1084 260 Z " /><path fill="rgb(173,232,202)" stroke="rgb(173,232,202)" stroke-width="1" opacity="1" d="M 468 264 L 480 264 L 480 276 L 468 276 L 468 264 Z " /><path fill="rgb(173,232,202)" stroke="rgb(173,232,202)" stroke-width="1" opacity="1" d="M 804 264 L 824 264 L 824 280 L 820 280 L 819.5 284 L 796 284 L 796 268 L 804 268 L 804 264 Z " /><path fill="rgb(173,232,202)" stroke="rgb(173,232,202)" stroke-width="1" opacity="1" d="M 544 268 L 572 268 L 572 276 L 576 276.5 L 576 288 L 572 288 L 572 296 Q 566 294 568 300 L 560 300 L 560 304 L 544 304 L 544 300 L 540 299.5 L 540 272 Q 546 274 544 268 Z " /><path fill="rgb(173,232,202)" stroke="rgb(173,232,202)" stroke-width="1" opacity="1" d="M 712 268 L 724 268 L 724 280 L 712 280 L 712 268 Z " /><path fill="rgb(173,232,202)" stroke="rgb(173,232,202)" stroke-width="1" opacity="1" d="M 256 272 L 272 272 L 272 284 L 256 284 L 256 272 Z " /><path fill="rgb(173,232,202)" stroke="rgb(173,232,202)" stroke-width="1" opacity="1" d="M 104 276 L 112 276 L 112 284 L 104 284 L 104 276 Z " /><path fill="rgb(173,232,202)" stroke="rgb(173,232,202)" stroke-width="1" opacity="1" d="M 332 296 L 340 296 L 340 304 L 332 304 L 332 296 Z " /><path fill="rgb(106,207,201)" stroke="rgb(106,207,201)" stroke-width="1" opacity="1" d="M 24 164 L 32 164 L 32 172 L 24 172 L 24 164 Z " /><path fill="rgb(106,207,201)" stroke="rgb(106,207,201)" stroke-width="1" opacity="1" d="M 64 176 L 80 176 L 80 192 L 76 192 L 75.5 196 L 56 196 L 56 180 L 64 180 L 64 176 Z " /><path fill="rgb(106,207,201)" stroke="rgb(106,207,201)" stroke-width="1" opacity="1" d="M 1236 176 L 1240 176 L 1240 188 L 1232 188 L 1232 180 Q 1238 182 1236 176 Z " /><path fill="rgb(106,207,201)" stroke="rgb(106,207,201)" stroke-width="1" opacity="1" d="M 1256 184 L 1272 184 L 1272 204 Q 1266 202 1268 208 L 1260 208 L 1260 200 L 1256 199.5 L 1256 184 Z " /><path fill="rgb(106,207,201)" stroke="rgb(106,207,201)" stroke-width="1" opacity="1" d="M 1204 192 L 1212 192 L 1212 200 L 1204 200 L 1204 192 Z " /><path fill="rgb(106,207,201)" stroke="rgb(106,207,201)" stroke-width="1" opacity="1" d="M 12 196 L 39.5 196 L 40 200 L 48 200 L 48 204 L 52 204 L 52 208 L 56 208.5 L 56 236 Q 50 234 52 240 L 44 240 L 43.5 244 L 20.5 244 L 20 248 L 51.5 248 L 52.5 244 L 72 244 L 72 252 L 76 252 L 76 240.5 L 80 240 L 80 236 L 96 236 L 96 240 L 100 240 Q 98 246 104 244 L 104 252 L 112 252 L 112.5 248 L 132 248 L 132 252 L 140 252 L 140 263.5 L 144 264 L 144 268 L 168 268 L 168 264 Q 174 266 172 260 L 180 260 Q 178 254 184 256 L 184 236.5 L 188 236 L 188 232 L 212 232 L 212 236 L 216 236.5 L 216 256 L 212 256 L 212 264 L 220 264 L 220 268 L 224 268 L 224 272 L 228 272 L 228.5 276 L 248 276 L 248 268 L 252 267.5 L 252 252 L 272 252 L 272 260 Q 278 258 276 264 L 296 264 L 296 252 L 304 252 L 304 244.5 L 308 244 L 308 236 L 336 236 L 336 240 L 340 240.5 L 340 252 L 356 252 L 356 268 L 380 268 L 380 260.5 L 384 260 L 384 252 L 404 252 L 404 240.5 L 408 240 L 408 236 L 428 236 Q 426 242 432 240 L 432 248 Q 438 246 436 252 L 455.5 252 L 456.5 256 L 468 256 Q 466 250 472 252 L 472 240.5 L 476 240 L 476 236 L 500 236 L 500 240 L 504 240.5 L 504 252 L 524 252 L 524 248 L 535.5 248 L 536 244 L 544 244 L 544 252 L 548 252 L 548 240 L 564 240 L 564 252 L 588 252 L 588.5 248 L 608 248 L 608.5 252 L 640 252 L 640 263.5 L 644 264 L 644 268 L 660 268 Q 658 262 664 264 Q 662 270 668 268 L 668 276 L 684 276 L 684 272 L 688 272 Q 686 266 692 268 L 692 252.5 L 696 252 L 696 260 Q 702 258 700 264 L 708 264 L 708 260 L 716 260 L 716 252 L 728 252 L 728 236 L 732 236 L 732 232 L 736 232 L 736 228 Q 742 230 740 224 L 764 224 L 764 232 L 768 232 L 768 236 L 772 236.5 L 772 252 L 780 252 L 780 236 L 800 236 L 800 252 L 832 252 L 832 248 L 828 248 L 828 244 L 824 243.5 L 824 216 Q 830 218 828 212 L 836 212 L 836.5 208 L 864 208 Q 862 214 868 212 L 868 220 L 872 220 L 872 232 L 868 232 L 868 247.5 L 864 248 L 864 252 L 899.5 252 L 900 251.5 L 900 236 L 924 236 L 924 252 L 972 252 L 972 244 Q 978 246 976 240 L 996 240 L 996 252 L 1016 252 L 1016 259.5 L 1016.5 260 L 1040 260 L 1040 248 L 1044 248 L 1044 240 Q 1050 242 1048 236 L 1076 236 L 1076 240 L 1080 240.5 L 1080 252 L 1092 252 Q 1090 246 1096 248 L 1096 240 L 1116 240 L 1116 244 L 1124 244 L 1124 252 L 1140 252 L 1140 248 Q 1146 250 1144 244 L 1156 244 L 1156 252 L 1160 252 L 1160 236 L 1164 236 L 1164 232 Q 1170 234 1168 228 L 1176 228 L 1176 220 L 1184 220 L 1184 232 L 1196 232 L 1196 240 L 1200 240 Q 1198 246 1204 244 L 1204 252 L 1216 252 L 1216 240 L 1224 240 L 1224 236 L 1220 235.5 L 1220 212 L 1224 212 L 1224 208 L 1228 208 L 1228.5 204 L 1248 204 L 1248 208 L 1252 208 L 1252 212 L 1256 212 Q 1254 218 1260 216 L 1260 236 L 1256 236 L 1256 244 L 1264 244 L 1264 236 L 1268 235.5 L 1268 220.5 L 1272 220 L 1272 216 L 1264 216 L 1264 212 L 1271.5 212 L 1272 216 L 1280 216 L 1280 248 Q 1274 246 1276 252 L 1280 252.5 L 1280 376 L 1276 375.5 L 1276 352.5 L 1272 351.5 L 1272 332.5 L 1268 332 L 1268 324 L 1264 324 L 1264 316 L 1260 316 L 1260 308 L 1244 308 L 1244 351.5 L 1248 352.5 L 1248 372 L 1236 372 L 1236 368 L 1232 368 L 1232 364 L 1228 364 Q 1230 358 1224 360 L 1224 352.5 L 1220 352 L 1220 344 L 1192 344 L 1192 355.5 L 1188 356.5 L 1188 368 L 1184 368 L 1184 372 L 1180 372 L 1180 376 L 1176 376 L 1176 380 L 1172 380 L 1172 384 Q 1166 382 1168 388 L 1156 388 L 1156 384 L 1148.5 384 L 1148 383.5 L 1148 352.5 L 1144 352 L 1144 344 L 1128 344 L 1128 348 L 1124 348.5 L 1124 359.5 L 1120 360 L 1120 371.5 L 1116 372 L 1116 380 L 1108 380 L 1108 372.5 L 1107.5 372 L 1080 372 L 1080 384 L 1072 384 L 1072 388 L 1068 388 L 1067.5 392 L 1012.5 392 L 1012 392.5 L 1012 400 L 1008 400 L 1008 404 L 1004 404 L 1003.5 408 L 972.5 408 L 972 408.5 L 972 415.5 L 971.5 416 L 940 416 L 940 408 L 932 408 L 932 404 L 928 404 L 928 400 L 924 400 L 924 396 Q 918 398 920 392 L 892 392 L 892 384 L 880 384 L 880 380 L 872 380 L 872 376 Q 866 378 868 372 L 860 372 L 860 368 L 852 368 Q 854 362 848 364 L 848 375.5 L 852 376 L 852 380 L 848 380.5 L 848 408 L 836 408 L 836 344.5 L 835.5 344 L 824 344 L 824 348 L 820 348 Q 822 354 816 352 L 816 360 L 812 360 L 812 367.5 L 808 368 L 808 376 L 804 376 L 804 392 L 796 392 L 796 384 L 792 384 L 792 376 L 788 376 L 788 368 L 784 368 L 784 360 Q 778 362 780 356 L 772 356 L 771.5 352 L 748 352 L 748 371.5 L 747.5 372 L 740 372 L 740 384 L 712 384 L 712 395.5 L 708 396 L 707.5 400 L 672 400 L 672 396 L 668 396 L 668 392 L 664 392 L 664 388 Q 658 390 660 384 L 652 384 L 652 380 L 644 380 L 643.5 376 L 628 376 L 628 404 L 624 404 L 623.5 408 L 608.5 408 L 607.5 412 L 596 412 L 596 392.5 L 600 392 L 600 384 L 596 383.5 L 596 368 L 572 368 L 572 380 L 560 380 L 560 392 L 544 392 L 544 400 L 540 400 L 540 384.5 L 536 383.5 L 536 372 L 532 372 L 531.5 368 L 520 368 L 520 407.5 L 519.5 408 L 512 408 L 512 396 L 492.5 396 L 492 392 L 488 392 L 488 380.5 L 484 379.5 L 484 364.5 L 480 363.5 L 480 348 L 476 348 L 476 340.5 L 472 340 L 472 332 L 468 332 Q 470 326 464 328 L 464 320 Q 458 322 460 316 L 452 316 L 452 320 L 448 320.5 L 448 356 Q 454 354 452 360 L 448 360 L 448 379.5 L 444 380 L 444 388 Q 438 386 440 392 L 364 392 L 364 388 Q 358 390 360 384 L 352 384 L 351.5 380 L 312 380 L 312 384 L 304 384 L 304 392 L 300 392.5 L 300 403.5 L 296 404 L 296 408 L 284 408 L 284 412 L 276 412 L 276 416 L 268 416 L 267.5 420 L 232 420 Q 234 414 228 416 L 228 408 L 224 408 Q 226 402 220 404 L 220 396.5 L 216 396 L 216 388 L 212 388 L 212 376 L 196 376 L 196 360 L 192 360 L 191.5 356 L 180 356 L 180 364 L 160.5 364 L 159.5 368 L 148 368 L 148 380 L 140 380 L 139.5 384 L 128 384 L 128 388 Q 122 386 124 392 L 100 392 L 100 376.5 L 96 375.5 L 96 356 L 92 356 L 92 348 L 80 348 L 80 379.5 L 79.5 380 L 72 380 L 72 388 L 68 388 L 68 384 L 60 384 L 60 380 L 52 380 L 52 376 L 48 375.5 L 48 300.5 L 44 299.5 L 44 288 L 20 288 L 20 307.5 L 16 308 L 16 316 L 12 316 L 12 328 L 8 328 L 8 339.5 L 4 340.5 L 4 355.5 L 0 356 L 0 240.5 L 0.5 240 L 12 240 L 12 236 L 8 235.5 L 8 204 L 12 204 L 12 196 Z M 12 240 Q 10 246 16 244 Q 18 238 12 240 Z M 1232 244 L 1233 248 L 1252 248 L 1252 244 L 1232 244 Z M 88 252 L 88 264 L 92 264 L 92 268 L 100 268 Q 98 262 104 264 L 104 252 L 88 252 Z M 444 256 L 444 268 L 456 268 L 456 256 L 444 256 Z M 184 260 L 184 272 L 196 272 L 196 264 L 188 264 Q 190 258 184 260 Z M 616 260 L 616 272 L 628 272 L 628 260 L 616 260 Z M 1044 260 Q 1046 266 1040 264 L 1040 268 L 1036 268 L 1036 280 L 1040 280 L 1040 284 L 1056 284 L 1056 280 L 1060 280 L 1060 264 L 1052 264 L 1052 260 L 1044 260 Z M 1084 260 L 1084 264 L 1076 264 L 1076 272 Q 1082 270 1080 276 L 1096 276 L 1096 260 L 1084 260 Z M 468 264 L 468 276 L 480 276 L 480 264 L 468 264 Z M 804 264 L 804 268 L 796 268 L 796 284 L 820 284 L 820 280 L 824 280 L 824 264 L 804 264 Z M 544 268 Q 546 274 540 272 L 540 300 L 544 300 L 544 304 L 560 304 L 560 300 L 568 300 Q 566 294 572 296 L 572 288 L 576 288 L 576 277 L 572 276 L 572 268 L 544 268 Z M 712 268 L 712 280 L 724 280 L 724 268 L 712 268 Z M 256 272 L 256 284 L 272 284 L 272 272 L 256 272 Z M 976 272 L 976 284 L 988 284 L 988 272 L 976 272 Z M 104 276 L 104 284 L 112 284 L 112 276 L 104 276 Z M 1008 284 Q 1006 290 1012 288 Q 1014 282 1008 284 Z M 960 288 Q 958 294 964 292 Q 966 286 960 288 Z M 992 288 L 992 292 L 980 292 L 980 304 L 992 304 L 992 296 L 1000 296 L 1000 288 L 992 288 Z M 332 296 L 332 304 L 340 304 L 340 296 L 332 296 Z M 956 296 L 956 304 L 968 304 L 968 296 L 956 296 Z M 1008 300 L 1008 308 L 1020 308 L 1020 300 L 1008 300 Z M 1028 300 L 1028 308 L 1036 308 L 1036 300 L 1028 300 Z M 936 308 L 936 320 L 948 320 L 948 328 Q 954 326 952 332 L 964 332 L 964 328 L 968 328 L 968 316 L 949 316 L 948 316 L 948 308 L 936 308 Z M 1052 308 L 1052 320 L 1064 320 L 1064 308 L 1052 308 Z M 1000 312 L 1000 324 L 1016 324 L 1016 312 L 1000 312 Z M 1028 316 L 1028 332 L 1024 332 L 1024 340 L 1040 340 L 1040 316 L 1028 316 Z M 980 324 L 980 332 L 988 332 L 988 324 L 980 324 Z M 1056 324 L 1056 336 L 1072 336 L 1072 324 L 1056 324 Z M 1008 328 L 1008 340 L 988 340 L 988 356 L 1008 356 L 1008 352 L 1012 352 L 1012 340 L 1020 340 L 1020 328 L 1008 328 Z M 968 336 L 968 344 L 976 344 L 976 336 L 968 336 Z M 948 340 L 948 348 L 960 348 L 960 340 L 948 340 Z M 1024 356 L 1024 368 L 1036 368 L 1036 356 L 1024 356 Z " /><path fill="rgb(106,207,201)" stroke="rgb(106,207,201)" stroke-width="1" opacity="1" d="M 952 196 L 975.5 196 L 976 200 L 980 200 L 980 232 L 972 232 L 972 236 L 968 236 L 967.5 240 L 944 240 L 944 236 L 936.5 236 L 936 235.5 L 936 208 L 940 208 L 940 204 Q 946 206 944 200 L 952 200 L 952 196 Z " /><path fill="rgb(106,207,201)" stroke="rgb(106,207,201)" stroke-width="1" opacity="1" d="M 1168 204 L 1180 204 L 1180 216 L 1168 216 L 1168 204 Z " /><path fill="rgb(106,207,201)" stroke="rgb(106,207,201)" stroke-width="1" opacity="1" d="M 76 208 L 84 208 L 84 220 L 76 220 L 76 208 Z " /><path fill="rgb(106,207,201)" stroke="rgb(106,207,201)" stroke-width="1" opacity="1" d="M 1196 216 L 1208 216 L 1208 228 L 1196 228 L 1196 216 Z " /><path fill="rgb(106,207,201)" stroke="rgb(106,207,201)" stroke-width="1" opacity="1" d="M 260 232 L 272 232 L 272 240 Q 266 238 268 244 L 260 244 L 260 232 Z " /><path fill="rgb(106,207,201)" stroke="rgb(106,207,201)" stroke-width="1" opacity="1" d="M 368 232 L 376 232 L 376 244 L 368 244 L 368 232 Z " /><path fill="rgb(106,207,201)" stroke="rgb(106,207,201)" stroke-width="1" opacity="1" d="M 152 240 L 163.5 240 L 164 244 L 172 244 L 172 256 L 168 256 L 167.5 260 L 148 260 L 148 244.5 L 152 244 L 152 240 Z " /><path fill="rgb(106,207,201)" stroke="rgb(106,207,201)" stroke-width="1" opacity="1" d="M 228 240 L 244 240 L 244 256 L 240 256 L 240 264 L 228 264 L 228 260 L 224 259.5 L 224 248 L 228 248 L 228 240 Z " /><path fill="rgb(60,47,127)" stroke="rgb(60,47,127)" stroke-width="1" opacity="1" d="M 1124 524 Q 1130 522 1128 528 Q 1122 530 1124 524 Z " /><path fill="rgb(60,47,127)" stroke="rgb(60,47,127)" stroke-width="1" opacity="1" d="M 72 536 Q 78 534 76 540 Q 70 542 72 536 Z " /><path fill="rgb(60,47,127)" stroke="rgb(60,47,127)" stroke-width="1" opacity="1" d="M 1144 536 L 1156 536 L 1156 548 L 1144 548 L 1144 556 L 1132 556 L 1132 548 L 1144 548 L 1144 536 Z " /><path fill="rgb(60,47,127)" stroke="rgb(60,47,127)" stroke-width="1" opacity="1" d="M 140 540 L 148 540 L 148 548 L 140 548 L 140 540 Z " /><path fill="rgb(60,47,127)" stroke="rgb(60,47,127)" stroke-width="1" opacity="1" d="M 1196 540 L 1208 540 L 1208 552 L 1220 552 L 1220 564 L 1208 564 L 1208 552 L 1196 552 L 1196 540 Z " /><path fill="rgb(60,47,127)" stroke="rgb(60,47,127)" stroke-width="1" opacity="1" d="M 72 544 L 80 544 L 80 548 L 72 548 L 72 544 Z " /><path fill="rgb(60,47,127)" stroke="rgb(60,47,127)" stroke-width="1" opacity="1" d="M 80 552 L 87.5 552 L 88 556 L 96 556 L 96 580 L 88 580 L 88 572 L 80 572 L 80 552 Z " /><path fill="rgb(60,47,127)" stroke="rgb(60,47,127)" stroke-width="1" opacity="1" d="M 124 552 L 132 552 L 132 563.5 L 136 564 L 136 568 Q 130 566 132 572 L 124 572 L 124 576 L 112 576 L 112 580 Q 106 578 108 584 L 100 584 L 100 576 L 108 576 L 108 560 L 124 560 L 124 552 Z M 124 560 Q 122 566 128 564 Q 130 558 124 560 Z " /><path fill="rgb(60,47,127)" stroke="rgb(60,47,127)" stroke-width="1" opacity="1" d="M 1116 556 L 1128 556 L 1128 568 L 1116 568 L 1116 556 Z " /><path fill="rgb(60,47,127)" stroke="rgb(60,47,127)" stroke-width="1" opacity="1" d="M 1192 556 L 1204 556 L 1204 568 L 1192 568 L 1192 556 Z " /><path fill="rgb(60,47,127)" stroke="rgb(60,47,127)" stroke-width="1" opacity="1" d="M 140 564 Q 146 562 144 568 Q 138 570 140 564 Z " /><path fill="rgb(60,47,127)" stroke="rgb(60,47,127)" stroke-width="1" opacity="1" d="M 1136 568 L 1144 568 L 1144 576 L 1136 576 L 1136 568 Z " /><path fill="rgb(60,47,127)" stroke="rgb(60,47,127)" stroke-width="1" opacity="1" d="M 1216 568 L 1232 568 L 1232 580 L 1216 580 L 1216 568 Z " /><path fill="rgb(60,47,127)" stroke="rgb(60,47,127)" stroke-width="1" opacity="1" d="M 1168 572 L 1183.5 572 L 1184 576 L 1192 576 L 1192 588 L 1168 588 L 1168 572 Z " /><path fill="rgb(60,47,127)" stroke="rgb(60,47,127)" stroke-width="1" opacity="1" d="M 56 576 L 67.5 576 L 68.5 580 L 80 580 L 80 584 L 92 584 L 92 588 L 104 588 L 104 604 L 112 604 Q 110 610 116 608 L 116 624 L 104 624 L 104 632 L 108 632 L 108 644 L 96 644 L 96 652 L 88 652 L 88 644 Q 94 646 92 640 L 88 639.5 L 88 620 L 92 620 L 92 608.5 L 96 608 L 96 604 L 84.5 604 L 84 604.5 L 84 660 L 96 660 L 96 664 Q 102 662 100 668 L 108 668 Q 106 674 112 672 Q 110 666 116 668 L 116 672 L 124 672 L 124 668 Q 130 670 128 664 L 140 664 L 140 672 L 144 672 L 144 664 L 148 663.5 L 148 648 L 140.5 648 L 140 644 L 132 644 L 132 628.5 L 128 627.5 L 128 612 L 140 612 L 140 596 L 160 596 L 160 615.5 L 164 616 L 164 620 L 160 620 L 159.5 616 L 144 616 L 144 628 L 163.5 628 L 164.5 632 L 180 632 L 180 648 L 172 648 L 172 652 L 180 652 L 180 660 L 172 660 L 172 652 L 164 652 L 164 660 Q 170 658 168 664 L 164 664 L 164 672 Q 170 674 168 668 L 179.5 668 L 180 664 L 184 664 L 184 668 L 192 668 L 192 660 L 203.5 660 L 204 656 L 208 656 L 208 660 Q 214 658 212 664 L 220 664 Q 218 670 224 668 L 224 656 L 232 656 L 232 668 L 236 668 L 236 660 L 248 660 Q 246 666 252 664 L 252 660 L 256 660 Q 254 654 260 656 L 260 652 L 268 652 L 268 648 L 272 648 Q 270 642 276 644 Q 278 650 272 648 L 272 656 Q 266 654 268 660 L 276 660 L 276 656 L 280 656 Q 278 650 284 652 L 284 656 L 292 656 Q 290 650 296 652 L 296 656 L 304 656 L 304 652 Q 298 654 300 648 L 304 648 Q 302 642 308 644 L 308 648 Q 302 646 304 652 L 308 652 Q 306 658 312 656 L 312.5 652 L 332 652 L 332 648 L 336 648 L 336 644 Q 342 646 340 640 L 348 640 L 348 644 Q 342 642 344 648 L 352 648 L 352.5 644 L 364 644 L 364 640 L 372 640 Q 370 634 376 636 Q 378 642 372 640 L 372 648 L 380 648 L 380 640 L 384 640 L 384 644 L 392 644 Q 390 650 396 648 L 396 640 L 400 640 L 400 652 L 404 652 L 404 644 L 416 644 L 416 652 L 424 652 L 424 644 L 432 644 L 432 656 L 440 656 L 440 652 Q 434 654 436 648 L 451.5 648 L 452 652 L 460 652 L 460 648 L 472 648 L 472 656 L 480 656 L 480 660 L 496 660 L 496.5 656 L 512 656 L 512 648 L 516 648 Q 514 654 520 652 L 520 660 L 528 660 L 528 656 Q 522 658 524 652 L 528 652 L 528 656 Q 534 654 532 660 L 540 660 L 540 652 L 544 652 L 544 660 L 552 660 Q 554 654 548 656 L 548 648 L 556 648 L 556 660 L 560 660 L 560 652 L 568 652 L 568 660 L 572 660 L 572.5 656 L 592 656 Q 590 662 596 660 L 596 652 L 604 652 Q 602 658 608 656 L 608 648 L 620 648 L 620 652 Q 614 650 616 656 L 623.5 656 L 624 652 L 635.5 652 L 636 648 L 644 648 L 644 656 L 648 656 L 648 652 L 656 652 Q 654 658 660 656 L 660 648 Q 666 650 664 644 L 676 644 L 676 636 L 684 636 L 684 644 L 688 644 L 688 640 L 696 640 L 696 644 L 704 644 Q 702 650 708 648 L 708 644 L 716 644 Q 714 650 720 648 L 720 644 L 728 644 L 728 648 L 736 648 Q 738 642 732 644 L 732 636 L 736 636 L 736 644 L 744 644 Q 742 650 748 648 L 748 640 L 752 640 Q 750 646 756 644 Q 754 638 760 640 Q 758 646 764 644 L 764 632 L 772 632 L 772 640 L 776 640 L 776 636 L 780 636 Q 778 630 784 632 Q 782 638 788 636 L 788 632 L 796 632 L 796.5 628 L 832 628 L 832 632 L 836 632 Q 834 638 840 636 Q 838 630 844 632 L 844 636 Q 838 634 840 640 L 844 640 L 844 648 L 848 648 L 848 632 L 864 632 L 864 640 L 856 640 L 856 644 Q 862 642 860 648 L 868 648 L 868 640 L 876 640 L 876 648 Q 870 646 872 652 L 880 652 L 880 656 Q 886 654 884 660 L 892 660 L 892 656 L 900 656 L 900 664 L 904 664.5 L 904 676 L 908 676 L 908 680 L 912 680 Q 910 686 916 684 Q 914 678 920 680 L 920 684 L 932 684 L 932 680 L 940 680 L 940 688 Q 934 686 936 692 L 943.5 692 L 944 688 L 952 688 L 952.5 692 L 968 692 L 968 684 L 980 684 L 980.5 688 L 1000 688 L 1000 684 L 1008 684 L 1008 672 L 1016 672 L 1016 684 L 1008 684 L 1008 688 L 1020 688 L 1020 680 L 1032 680 L 1032 688 L 1040 688 L 1040 684 L 1048 684 Q 1046 678 1052 680 L 1052 672 L 1064 672 L 1064 680 L 1072 680 Q 1070 674 1076 676 L 1076 668 L 1084 668 Q 1082 674 1088 672 L 1088 668 L 1092 668 L 1092 664 Q 1098 666 1096 660 L 1104 660 L 1104 672 L 1108 672 L 1108 668 L 1120 668 L 1120 664 L 1112 664 L 1112 656 L 1120 656 L 1120 664 L 1124 664 L 1124 652 L 1132 652 L 1132 656 L 1140 656 L 1140 652 L 1148 652 L 1148 648 L 1128 648 L 1128 640 L 1140 640 L 1140 624 L 1156 624 L 1156 639.5 L 1152 640 L 1152 648 L 1164 648 L 1164 644 L 1160 644 L 1160 636 Q 1166 638 1164 632 L 1172 632 L 1172 620 L 1188 620 L 1188 624 L 1200 624 L 1200 636 L 1184.5 636 L 1183.5 632 L 1172 632 Q 1170 638 1176 636 L 1176 644 Q 1182 642 1180 648 L 1208 648 L 1208 620 L 1196 620 L 1196 612.5 L 1195.5 612 L 1176 612 L 1176 592 L 1195.5 592 L 1196 592.5 L 1196 600 L 1208 600 L 1208 596 L 1212 595.5 L 1212 584 L 1228 584 L 1228 599.5 L 1224 600 L 1224 608 L 1220 608.5 L 1220 640 L 1224 640 L 1224 648 L 1240 648 L 1240 632 Q 1246 634 1244 628 L 1252 628 L 1252 624 L 1264 624 L 1264 592 L 1280 592 L 1280 719.5 L 1279.5 720 L 0 720 L 0 648.5 L 4 648 L 4 644 L 0 644 L 0 636 L 4 636 L 4 644 Q 10 642 8 648 L 16 648 L 16 644 L 28 644 L 28 648 L 40 648 L 40 644 L 48 644 L 48 652 L 52 652 L 52 644 L 56 644 Q 54 650 60 648 L 60 656 L 64 656 Q 62 662 68 660 L 68 652 Q 62 654 64 648 L 72 648 Q 70 654 76 652 L 76 660 Q 70 658 72 664 L 80 664 L 80 644 L 68 644 L 68 636 L 80 636 L 80 624 L 76 623.5 L 76 600.5 L 72 600 L 72 616 L 52 616 L 52 600 L 60 600 L 60 592 L 56 591.5 L 56 576 Z M 780 636 Q 778 642 784 640 Q 786 634 780 636 Z M 680 644 Q 678 650 684 648 Q 686 642 680 644 Z M 384 648 L 384 652 L 392 652 L 392 648 L 384 648 Z M 688 648 Q 686 654 692 652 Q 694 646 688 648 Z M 412 652 Q 410 658 416 656 Q 418 650 412 652 Z M 460 652 L 460 660 L 472 660 L 472 656 L 464 656 Q 466 650 460 652 Z M 636 652 Q 634 658 640 656 Q 642 650 636 652 Z M 448 656 Q 446 662 452 660 Q 454 654 448 656 Z M 204 664 L 204 668 L 212 668 L 212 664 L 204 664 Z M 244 664 Q 242 670 248 668 Q 250 662 244 664 Z M 92 668 L 92 672 L 100 672 L 100 668 L 92 668 Z M 1056 680 L 1056 684 L 1064 684 L 1064 680 L 1056 680 Z M 916 684 Q 914 690 920 688 Q 922 682 916 684 Z " /><path fill="rgb(60,47,127)" stroke="rgb(60,47,127)" stroke-width="1" opacity="1" d="M 132 576 Q 138 574 136 580 Q 130 582 132 576 Z " /><path fill="rgb(60,47,127)" stroke="rgb(60,47,127)" stroke-width="1" opacity="1" d="M 1200 580 L 1208 580 L 1208 584 L 1200 584 L 1200 580 Z " /><path fill="rgb(60,47,127)" stroke="rgb(60,47,127)" stroke-width="1" opacity="1" d="M 1232 584 L 1244 584 L 1244 592 L 1232 592 L 1232 584 Z " /><path fill="rgb(60,47,127)" stroke="rgb(60,47,127)" stroke-width="1" opacity="1" d="M 164 596 L 184 596 L 184 604 L 176 604 L 176 612 L 164 612 L 164 596 Z " /><path fill="rgb(60,47,127)" stroke="rgb(60,47,127)" stroke-width="1" opacity="1" d="M 1148 600 L 1164 600 L 1164 612 L 1148 612 L 1148 600 Z " /><path fill="rgb(60,47,127)" stroke="rgb(60,47,127)" stroke-width="1" opacity="1" d="M 0 608 L 8 608 L 8 620 L 0 620 L 0 608 Z " /><path fill="rgb(60,47,127)" stroke="rgb(60,47,127)" stroke-width="1" opacity="1" d="M 16 608 L 40 608 L 40 632 L 16 632 L 16 608 Z " /><path fill="rgb(60,47,127)" stroke="rgb(60,47,127)" stroke-width="1" opacity="1" d="M 848 612 L 852 612 L 852 620 L 848 620 L 848 612 Z " /><path fill="rgb(60,47,127)" stroke="rgb(60,47,127)" stroke-width="1" opacity="1" d="M 172 616 L 180 616 L 180 620 L 172 620 L 172 616 Z " /><path fill="rgb(60,47,127)" stroke="rgb(60,47,127)" stroke-width="1" opacity="1" d="M 812 620 Q 818 618 816 624 Q 810 626 812 620 Z " /><path fill="rgb(60,47,127)" stroke="rgb(60,47,127)" stroke-width="1" opacity="1" d="M 192 628 L 200 628 L 200 640 L 192 640 L 192 628 Z " /><path fill="rgb(60,47,127)" stroke="rgb(60,47,127)" stroke-width="1" opacity="1" d="M 656 636 Q 662 634 660 640 Q 654 642 656 636 Z " /><path fill="rgb(60,47,127)" stroke="rgb(60,47,127)" stroke-width="1" opacity="1" d="M 32 640 Q 38 638 36 644 Q 30 646 32 640 Z " /><path fill="rgb(60,47,127)" stroke="rgb(60,47,127)" stroke-width="1" opacity="1" d="M 252 640 Q 258 638 256 644 Q 250 646 252 640 Z " /><path fill="rgb(60,47,127)" stroke="rgb(60,47,127)" stroke-width="1" opacity="1" d="M 284 640 Q 290 638 288 644 Q 282 646 284 640 Z " /><path fill="rgb(60,47,127)" stroke="rgb(60,47,127)" stroke-width="1" opacity="1" d="M 316 640 L 320 640 L 320 644 Q 326 642 324 648 L 316 648 L 316 640 Z " /><path fill="rgb(60,47,127)" stroke="rgb(60,47,127)" stroke-width="1" opacity="1" d="M 496 644 L 504 644 L 504 652 L 496 652 L 496 644 Z " /><path fill="rgb(60,47,127)" stroke="rgb(60,47,127)" stroke-width="1" opacity="1" d="M 528 644 Q 534 642 532 648 Q 526 650 528 644 Z " /><path fill="rgb(60,47,127)" stroke="rgb(60,47,127)" stroke-width="1" opacity="1" d="M 592 644 L 600 644 L 600 648 L 592 648 L 592 644 Z " /><path fill="rgb(60,47,127)" stroke="rgb(60,47,127)" stroke-width="1" opacity="1" d="M 624 644 Q 630 642 628 648 Q 622 650 624 644 Z " /><path fill="rgb(60,47,127)" stroke="rgb(60,47,127)" stroke-width="1" opacity="1" d="M 648 644 Q 654 642 652 648 Q 646 650 648 644 Z " /><path fill="rgb(60,47,127)" stroke="rgb(60,47,127)" stroke-width="1" opacity="1" d="M 248 648 Q 254 646 252 652 Q 246 654 248 648 Z " /><path fill="rgb(60,47,127)" stroke="rgb(60,47,127)" stroke-width="1" opacity="1" d="M 476 648 Q 482 646 480 652 Q 474 654 476 648 Z " /><path fill="rgb(60,47,127)" stroke="rgb(60,47,127)" stroke-width="1" opacity="1" d="M 488 648 L 492 648 L 492 656 L 488 656 L 488 648 Z " /><path fill="rgb(60,47,127)" stroke="rgb(60,47,127)" stroke-width="1" opacity="1" d="M 572 648 Q 578 646 576 652 Q 570 654 572 648 Z " /><path fill="rgb(60,47,127)" stroke="rgb(60,47,127)" stroke-width="1" opacity="1" d="M 108 656 L 116 656 L 116 664 L 108 664 L 108 656 Z " /><path fill="rgb(60,47,127)" stroke="rgb(60,47,127)" stroke-width="1" opacity="1" d="M 216 656 Q 222 654 220 660 Q 214 662 216 656 Z " /><path fill="rgb(60,47,127)" stroke="rgb(60,47,127)" stroke-width="1" opacity="1" d="M 912 668 Q 918 666 916 672 Q 910 674 912 668 Z " /><path fill="rgb(39,182,198)" stroke="rgb(39,182,198)" stroke-width="1" opacity="1" d="M 976 272 L 988 272 L 988 284 L 976 284 L 976 272 Z " /><path fill="rgb(39,182,198)" stroke="rgb(39,182,198)" stroke-width="1" opacity="1" d="M 1008 284 Q 1014 282 1012 288 Q 1006 290 1008 284 Z " /><path fill="rgb(39,182,198)" stroke="rgb(39,182,198)" stroke-width="1" opacity="1" d="M 20 288 L 44 288 L 44 299.5 L 48 300.5 L 48 375.5 L 52 376 L 52 380 L 60 380 L 60 384 L 68 384 Q 66 390 72 388 L 72 380 L 79.5 380 L 80 379.5 L 80 348 L 92 348 L 92 356 L 96 356.5 L 96 375.5 L 100 376.5 L 100 392 L 124 392 L 124 388 Q 130 390 128 384 L 139.5 384 L 140 380 L 148 380 L 148 368 L 159.5 368 L 160.5 364 L 179.5 364 L 180 363.5 L 180 356 L 192 356 L 192 360 L 196 360.5 L 196 376 L 212 376 L 212 388 L 216 388 L 216 395.5 L 220 396 L 220 404 L 224 404 Q 222 410 228 408 L 228 416 Q 234 414 232 420 L 268 420 L 268 416 L 276 416 L 276 412 L 284 412 L 284 408 L 296 408 L 296 404 L 300 403.5 L 300 392.5 L 304 392 L 304 384 L 312 384 L 312 380 L 352 380 L 352 384 L 360 384 L 360 388 L 364 388 L 364.5 392 L 440 392 Q 438 386 444 388 L 444 380 L 448 379.5 L 448 360.5 L 452 360 L 452 356 L 448 355.5 L 448 320 Q 454 322 452 316 L 460 316 Q 458 322 464 320 L 464 328 L 468 328 Q 466 334 472 332 L 472 339.5 L 476 340 L 476 348 L 480 348 L 480 363.5 L 484 364.5 L 484 379.5 L 488 380.5 L 488 392 L 492 392 L 492.5 396 L 512 396 L 512 408 L 520 408 L 520 368.5 L 520.5 368 L 532 368 L 532 372 L 536 372.5 L 536 384 L 540 384.5 L 540 400 L 544 400 L 544 392 L 560 392 L 560 380 L 572 380 L 572 368 L 596 368 L 596 383.5 L 600 384 L 600 392 L 596 392.5 L 596 412 L 607.5 412 L 608.5 408 L 624 408 L 624 404 L 628 403.5 L 628 376 L 644 376 L 644 380 L 651.5 380 L 652 384 L 660 384 L 660 388 L 664 388 L 664 392 L 668 392 L 668 396 Q 674 394 672 400 L 708 400 L 708 396 L 712 395.5 L 712 384 L 740 384 L 740 372 L 747.5 372 L 748 371.5 L 748 352 L 772 352 L 772 356 L 780 356 Q 778 362 784 360 L 784 368 L 788 368 L 788 376 L 792 376 L 792 383.5 L 796 384 L 796 392 L 804 392 L 804 376.5 L 808 376 L 808 368 L 812 368 L 812 360 L 816 360 L 816 352 L 820 352 L 820 348 Q 826 350 824 344 L 836 344 L 836 407.5 L 836.5 408 L 848 408 L 848 380.5 L 852 380 L 852 376 L 848 376 L 848 364 Q 854 362 852 368 L 860 368 L 860 372 L 868 372 L 868 376 Q 874 374 872 380 L 880 380 L 880 384 L 892 384 L 892 392 L 920 392 L 920 396 L 924 396 L 924 400 L 928 400 L 928 404 Q 934 402 932 408 L 940 408 L 940 416 L 972 416 L 972 408.5 L 972.5 408 L 1004 408 L 1004 404 L 1008 404 Q 1006 398 1012 400 L 1012 392.5 L 1012.5 392 L 1067.5 392 L 1068 388 L 1072 388 L 1072 384 L 1080 384 L 1080 372 L 1108 372 L 1108 380 L 1116 380 L 1116 372 L 1120 371.5 L 1120 360 L 1124 359.5 L 1124 348 L 1128 348 L 1128.5 344 L 1144 344 L 1144 352 L 1148 352.5 L 1148 384 L 1156 384 L 1156.5 388 L 1168 388 L 1168 384 L 1172 384 L 1172 380 L 1176 380 L 1176 376 L 1180 376 L 1180 372 L 1184 372 Q 1182 366 1188 368 L 1188 356.5 L 1192 355.5 L 1192 344 L 1220 344 L 1220 351.5 L 1224 352 L 1224 360 L 1228 360 L 1228 364 L 1232 364 L 1232 368 Q 1238 366 1236 372 L 1248 372 L 1248 352.5 L 1244 351.5 L 1244 308 L 1260 308 L 1260 316 L 1264 316 L 1264 324 L 1268 324 L 1268 332 L 1272 332.5 L 1272 351.5 L 1276 352.5 L 1276 375.5 L 1280 376.5 L 1280 592 L 1264 592 L 1264 624 L 1252 624 L 1252 628 L 1244 628 Q 1246 634 1240 632 L 1240 648 L 1224 648 L 1224 640 L 1220 639.5 L 1220 608 L 1224 608 L 1224 600 L 1228 600 L 1228 584 L 1212 584 L 1212 596 L 1208 596 L 1207.5 600 L 1196 600 L 1196 592 L 1176 592 L 1176 612 L 1195.5 612 L 1196 612.5 L 1196 620 L 1208 620 L 1208 648 L 1180 648 Q 1182 642 1176 644 L 1176 636 Q 1170 638 1172 632 L 1164 632 Q 1166 638 1160 636 L 1160 644 Q 1166 642 1164 648 L 1152 648 L 1152 640 L 1156 639.5 L 1156 624 L 1140 624 L 1140 640 L 1128 640 L 1128 648 L 1147.5 648 L 1148 652 L 1140.5 652 L 1140 656 L 1132 656 L 1132 652 L 1124 652 L 1124 664 Q 1118 662 1120 668 L 1108.5 668 L 1108 672 L 1104 672 L 1104 660 L 1096 660 L 1096 664 L 1092 664 L 1092 668 L 1088 668 Q 1090 674 1084 672 L 1084 668 L 1076 668 L 1076 676 Q 1070 674 1072 680 L 1064.5 680 L 1064 684 L 1056 684 L 1056 680 L 1064 680 L 1064 672 L 1052 672 L 1052 680 Q 1046 678 1048 684 L 1040.5 684 L 1040 688 L 1032 688 L 1032 680 L 1020 680 L 1020 688 L 1008 688 L 1008 684 L 1000 684 L 999.5 688 L 980 688 L 980 684 L 968 684 L 968 692 L 952 692 L 952 688 L 944 688 L 944 692 L 936 692 Q 934 686 940 688 L 940 680 L 932 680 L 931.5 684 L 920.5 684 L 920 688 L 916 688 L 916 684 L 912 684 L 912 680 L 908 680 Q 910 674 904 676 L 904 664.5 L 900 664 L 900 656 L 892 656 L 892 660 L 884 660 L 884 656 Q 878 658 880 652 L 872 652 L 872 648 L 876 648 L 876 640 L 868 640 L 868 648 L 860 648 L 860 644 Q 854 646 856 640 L 864 640 L 864 632 L 848 632 L 848 647.5 L 844 648 L 844 640 L 840 640 L 840 636 L 836 636 L 836 632 Q 830 634 832 628 L 796 628 L 796 632 L 788 632 L 788 636 L 784 636 Q 786 642 780 640 Q 782 634 776 636 Q 778 642 772 640 L 772 632 L 764 632 L 764 644 L 760 644 Q 762 638 756 640 Q 758 646 752 644 Q 754 638 748 640 L 748 648 L 744 648 L 744 644 L 736 644 L 736 648 L 728 648 L 728 644 L 720 644 Q 722 650 716 648 L 716 644 L 708 644 Q 710 650 704 648 L 704 644 L 696.5 644 L 696 640 L 688 640 L 688 644 L 684 644 Q 686 650 680 648 Q 678 642 684 644 L 684 636 L 676 636 L 676 644 L 664 644 Q 666 650 660 648 L 660 656 L 656 656 L 656 652 L 648 652 Q 650 658 644 656 L 644 648 L 636 648 L 636 652 Q 642 650 640 656 L 636 656 L 635.5 652 L 624 652 L 624 656 L 616 656 L 616 652 Q 622 654 620 648 L 608 648 L 608 656 L 604 656 L 604 652 L 596 652 L 596 660 L 592 660 L 591.5 656 L 572 656 Q 574 662 568 660 L 568 652 L 560 652 L 560 660 L 556 660 L 556 648 L 548 648 L 548 656 Q 554 654 552 660 L 544 660 L 544 652 L 540 652 L 540 660 L 532 660 Q 534 654 528 656 L 528 660 L 520 660 L 520 652 L 516 652 Q 518 646 512 648 L 512 656 L 496.5 656 L 495.5 660 L 480 660 L 480 656 L 472 656 L 472 660 L 460 660 L 460 652 L 452 652 L 452 648 L 436 648 L 436 652 Q 442 650 440 656 L 432 656 L 432 644 L 424 644 L 424 652 L 416 652 Q 418 658 412 656 Q 410 650 416 652 L 416 644 L 404 644 L 404 652 L 400 652 L 400 640 L 396 640 L 396 648 Q 390 646 392 652 L 384 652 L 384 648 L 392 648 L 392 644 L 384 644 Q 386 638 380 640 L 380 648 L 372 648 L 372 640 L 364 640 L 364 644 L 352.5 644 L 352 648 L 344 648 L 344 644 Q 350 646 348 640 L 340 640 L 340 644 L 336 644 L 336 648 Q 330 646 332 652 L 312.5 652 L 312 656 L 308 656 Q 310 650 304 652 L 304 656 L 296 656 Q 298 650 292 652 L 292 656 L 284 656 Q 286 650 280 652 L 280 656 Q 274 654 276 660 L 268 660 Q 266 654 272 656 L 272 648 Q 266 646 268 652 L 260 652 L 260 656 L 256 656 L 256 660 L 252 660 L 252 664 L 248 664 Q 250 670 244 668 L 244 664 Q 250 666 248 660 L 236 660 L 236 668 L 232 668 L 232 656 L 224 656 L 224 668 L 220 668 L 220 664 L 212 664 L 212 668 L 204 668 L 204 664 L 212 664 L 212 660 L 208 660 Q 210 654 204 656 L 204 660 L 192 660 L 192 668 L 184 668 Q 186 662 180 664 L 180 668 L 168.5 668 L 168 672 L 164 672 L 164 664 Q 170 666 168 660 L 164 660 L 164 652 L 171.5 652 L 172 648 L 180 648 L 180 632 L 164.5 632 L 163.5 628 L 144 628 L 144 616 L 160 616 L 160 596 L 140 596 L 140 612 L 128 612 L 128 628 L 132 628.5 L 132 644 L 139.5 644 L 140 648 L 148 648 L 148 664 L 144 664 L 144 672 L 140 672 L 140 664 L 128 664 L 128 668 Q 122 666 124 672 L 116 672 Q 118 666 112 668 Q 114 674 108 672 L 108 668 L 100 668 L 100 672 L 92 672 L 92 668 L 100 668 L 100 664 L 96 664 L 95.5 660 L 84.5 660 L 84 659.5 L 84 604 L 96 604 L 96 608 L 92 608 L 92 619.5 L 88 620.5 L 88 640 Q 94 638 92 644 L 88 644 L 88 652 L 96 652 L 96 644 L 108 644 L 108 632 L 104 632 L 104 624 L 116 624 L 116 608 Q 110 610 112 604 L 104 604 L 104 588 L 92.5 588 L 91.5 584 L 80 584 L 80 580 L 68 580 L 68 576 L 56 576 L 56 591.5 L 60 592 L 60 600 L 52 600 L 52 616 L 72 616 L 72 600.5 L 76 600 L 76 623.5 L 80 624.5 L 80 636 L 68 636 L 68 644 L 80 644 L 80 664 L 72 664 L 72 660 L 76 660 L 76 652 Q 70 654 72 648 L 64 648 Q 62 654 68 652 L 68 660 Q 62 662 64 656 L 60 656 L 60 648 L 56 648 Q 58 642 52 644 L 52 652 L 48 652 L 48 644 L 40 644 L 40 648 L 28 648 L 28 644 L 16 644 L 16 648 L 8 648 Q 10 642 4 644 Q 6 650 0 648 Q -2 642 4 644 L 4 636 L 0 635.5 L 0 620 L 8 620 L 8 608 L 0.5 608 L 0 607.5 L 0 356 L 4 355.5 L 4 340.5 L 8 339.5 L 8 328 L 12 328 L 12 316 L 16 316 L 16 308 L 20 307.5 L 20 288 Z M 1124 524 Q 1122 530 1128 528 Q 1130 522 1124 524 Z M 72 536 Q 70 542 76 540 Q 78 534 72 536 Z M 1144 536 L 1144 548 L 1156 548 L 1156 536 L 1144 536 Z M 140 540 L 140 548 L 148 548 L 148 540 L 140 540 Z M 1196 540 L 1196 552 L 1208 552 L 1208 540 L 1196 540 Z M 72 544 L 72 548 L 80 548 L 80 544 L 72 544 Z M 1132 548 L 1132 556 L 1144 556 L 1144 548 L 1132 548 Z M 80 552 L 80 572 L 88 572 L 88 580 L 96 580 L 96 556 L 88 556 L 88 552 L 80 552 Z M 124 552 L 124 560 Q 130 558 128 564 Q 122 566 124 560 L 108 560 L 108 576 L 100 576 L 100 584 L 108 584 Q 106 578 112 580 L 112 576 L 124 576 L 124 572 L 132 572 Q 130 566 136 568 L 136 564 L 132 564 L 132 552 L 124 552 Z M 1208 552 L 1208 564 L 1220 564 L 1220 552 L 1208 552 Z M 1116 556 L 1116 568 L 1128 568 L 1128 556 L 1116 556 Z M 1192 556 L 1192 568 L 1204 568 L 1204 556 L 1192 556 Z M 140 564 Q 138 570 144 568 Q 146 562 140 564 Z M 1136 568 L 1136 576 L 1144 576 L 1144 568 L 1136 568 Z M 1216 568 L 1216 580 L 1232 580 L 1232 568 L 1216 568 Z M 1168 572 L 1168 588 L 1192 588 L 1192 576 L 1184 576 L 1184 572 L 1168 572 Z M 132 576 Q 130 582 136 580 Q 138 574 132 576 Z M 1200 580 L 1200 584 L 1208 584 L 1208 580 L 1200 580 Z M 1232 584 L 1232 592 L 1244 592 L 1244 584 L 1232 584 Z M 164 596 L 164 612 L 176 612 L 176 604 L 184 604 L 184 596 L 164 596 Z M 1148 600 L 1148 612 L 1164 612 L 1164 600 L 1148 600 Z M 16 608 L 16 632 L 40 632 L 40 608 L 16 608 Z M 848 612 L 848 620 L 852 620 L 852 612 L 848 612 Z M 160 616 Q 158 622 164 620 Q 166 614 160 616 Z M 172 616 L 172 620 L 180 620 L 180 616 L 172 616 Z M 812 620 Q 810 626 816 624 Q 818 618 812 620 Z M 1172 620 L 1172 632 L 1184 632 L 1185 636 L 1200 636 L 1200 624 L 1189 624 L 1188 620 L 1172 620 Z M 192 628 L 192 640 L 200 640 L 200 628 L 192 628 Z M 780 632 Q 778 638 784 636 Q 786 630 780 632 Z M 840 632 Q 838 638 844 636 Q 846 630 840 632 Z M 372 636 Q 370 642 376 640 Q 378 634 372 636 Z M 656 636 Q 654 642 660 640 Q 662 634 656 636 Z M 732 636 L 732 644 L 736 644 L 736 636 L 732 636 Z M 32 640 Q 30 646 36 644 Q 38 638 32 640 Z M 252 640 Q 250 646 256 644 Q 258 638 252 640 Z M 284 640 Q 282 646 288 644 Q 290 638 284 640 Z M 316 640 L 316 648 L 324 648 Q 326 642 320 644 L 320 640 L 316 640 Z M 272 644 Q 270 650 276 648 Q 278 642 272 644 Z M 304 644 Q 302 650 308 648 Q 310 642 304 644 Z M 496 644 L 496 652 L 504 652 L 504 644 L 496 644 Z M 528 644 Q 526 650 532 648 Q 534 642 528 644 Z M 592 644 L 592 648 L 600 648 L 600 644 L 592 644 Z M 624 644 Q 622 650 628 648 Q 630 642 624 644 Z M 648 644 Q 646 650 652 648 Q 654 642 648 644 Z M 248 648 Q 246 654 252 652 Q 254 646 248 648 Z M 300 648 Q 298 654 304 652 Q 306 646 300 648 Z M 460 648 Q 458 654 464 652 L 464 656 L 472 656 L 472 648 L 460 648 Z M 476 648 Q 474 654 480 652 Q 482 646 476 648 Z M 488 648 L 488 656 L 492 656 L 492 648 L 488 648 Z M 572 648 Q 570 654 576 652 Q 578 646 572 648 Z M 172 652 L 172 660 L 180 660 L 180 652 L 172 652 Z M 524 652 Q 522 658 528 656 Q 530 650 524 652 Z M 108 656 L 108 664 L 116 664 L 116 656 L 108 656 Z M 216 656 Q 214 662 220 660 Q 222 654 216 656 Z M 1112 656 L 1112 664 L 1120 664 L 1120 656 L 1112 656 Z M 912 668 Q 910 674 916 672 Q 918 666 912 668 Z M 1008 672 L 1008 684 L 1016 684 L 1016 672 L 1008 672 Z M 916 680 Q 914 686 920 684 Q 922 678 916 680 Z " /><path fill="rgb(39,182,198)" stroke="rgb(39,182,198)" stroke-width="1" opacity="1" d="M 960 288 Q 966 286 964 292 Q 958 294 960 288 Z " /><path fill="rgb(39,182,198)" stroke="rgb(39,182,198)" stroke-width="1" opacity="1" d="M 992 288 L 1000 288 L 1000 296 L 992 296 L 992 304 L 980 304 L 980 292 L 992 292 L 992 288 Z " /><path fill="rgb(39,182,198)" stroke="rgb(39,182,198)" stroke-width="1" opacity="1" d="M 956 296 L 968 296 L 968 304 L 956 304 L 956 296 Z " /><path fill="rgb(39,182,198)" stroke="rgb(39,182,198)" stroke-width="1" opacity="1" d="M 1008 300 L 1020 300 L 1020 308 L 1008 308 L 1008 300 Z " /><path fill="rgb(39,182,198)" stroke="rgb(39,182,198)" stroke-width="1" opacity="1" d="M 1028 300 L 1036 300 L 1036 308 L 1028 308 L 1028 300 Z " /><path fill="rgb(39,182,198)" stroke="rgb(39,182,198)" stroke-width="1" opacity="1" d="M 936 308 L 948 308 L 948 315.5 L 948.5 316 L 968 316 L 968 328 L 964 328 L 963.5 332 L 952 332 Q 954 326 948 328 L 948 320 L 936 320 L 936 308 Z " /><path fill="rgb(39,182,198)" stroke="rgb(39,182,198)" stroke-width="1" opacity="1" d="M 1052 308 L 1064 308 L 1064 320 L 1052 320 L 1052 308 Z " /><path fill="rgb(39,182,198)" stroke="rgb(39,182,198)" stroke-width="1" opacity="1" d="M 1000 312 L 1016 312 L 1016 324 L 1000 324 L 1000 312 Z " /><path fill="rgb(39,182,198)" stroke="rgb(39,182,198)" stroke-width="1" opacity="1" d="M 1028 316 L 1040 316 L 1040 340 L 1024 340 L 1024 332 L 1028 331.5 L 1028 316 Z " /><path fill="rgb(39,182,198)" stroke="rgb(39,182,198)" stroke-width="1" opacity="1" d="M 980 324 L 988 324 L 988 332 L 980 332 L 980 324 Z " /><path fill="rgb(39,182,198)" stroke="rgb(39,182,198)" stroke-width="1" opacity="1" d="M 1056 324 L 1072 324 L 1072 336 L 1056 336 L 1056 324 Z " /><path fill="rgb(39,182,198)" stroke="rgb(39,182,198)" stroke-width="1" opacity="1" d="M 1008 328 L 1020 328 L 1020 340 L 1012 340 L 1012 351.5 L 1008 352 L 1008 356 L 988 356 L 988 340 L 1008 340 L 1008 328 Z " /><path fill="rgb(39,182,198)" stroke="rgb(39,182,198)" stroke-width="1" opacity="1" d="M 968 336 L 976 336 L 976 344 L 968 344 L 968 336 Z " /><path fill="rgb(39,182,198)" stroke="rgb(39,182,198)" stroke-width="1" opacity="1" d="M 948 340 L 960 340 L 960 348 L 948 348 L 948 340 Z " /><path fill="rgb(39,182,198)" stroke="rgb(39,182,198)" stroke-width="1" opacity="1" d="M 1024 356 L 1036 356 L 1036 368 L 1024 368 L 1024 356 Z " /><path fill="rgb(39,182,198)" stroke="rgb(39,182,198)" stroke-width="1" opacity="1" d="M 688 648 Q 694 646 692 652 Q 686 654 688 648 Z " /><path fill="rgb(39,182,198)" stroke="rgb(39,182,198)" stroke-width="1" opacity="1" d="M 448 656 Q 454 654 452 660 Q 446 662 448 656 Z " /></svg>